<?xml version="1.0" encoding="UTF-8"?>
<!-- Generator: Adobe Illustrator 25.0.1, SVG Export Plug-In . SVG Version: 6.00 Build 0)  -->
<svg xmlns="http://www.w3.org/2000/svg" xmlns:xlink="http://www.w3.org/1999/xlink" version="1.1" id="Layer_1" x="0px" y="0px" viewBox="0 0 554.5 533.1" style="enable-background:new 0 0 554.5 533.1;" xml:space="preserve">
<style type="text/css">
	.st0{opacity:3.000000e-02;fill:#004EA4;enable-background:new    ;}
	.st1{fill:#0063CF;}
	.st2{fill:none;stroke:#FFFFFF;stroke-width:2;stroke-linecap:round;stroke-miterlimit:10;}
	.st3{fill:#1A2A42;}
	.st4{fill:#E58627;}
	.st5{fill:#C67124;}
	.st6{fill:#FC8F2D;}
	.st7{fill:#474747;}
	.st8{fill:#707070;}
	.st9{fill:#E2E2E2;}
	.st10{fill:#FFFFFF;}
	.st11{fill:#D9E6F4;}
	.st12{fill:#494949;}
	.st13{fill:#A0694B;}
	.st14{fill:url(#SVGID_1_);}
	.st15{fill:#004EA4;}
	.st16{fill:#0099E8;}
	.st17{opacity:5.000000e-02;fill:#1A2A42;enable-background:new    ;}
	.st18{fill:#D6D6D6;}
	.st19{fill:#875641;}
	.st20{fill:#302B2D;}
	.st21{fill:#231F20;}
	.st22{opacity:0.13;enable-background:new    ;}
	.st23{fill:#171819;}
	.st24{fill:#122E56;}
</style>
<ellipse class="st0" cx="277" cy="375.2" rx="277.3" ry="157.4"></ellipse>
<g>
	<g>
		
			<ellipse transform="matrix(0.1374 -0.9905 0.9905 0.1374 -23.4655 640.0129)" class="st1" cx="355.7" cy="333.5" rx="73.5" ry="21.8"></ellipse>
		<line class="st2" x1="365.9" y1="260.5" x2="348.4" y2="386.3"></line>
		<line class="st2" x1="346.1" y1="283.5" x2="359.1" y2="309.4"></line>
		<line class="st2" x1="337.7" y1="311" x2="355.2" y2="337.4"></line>
		<line class="st2" x1="332.3" y1="349.6" x2="351.8" y2="362.2"></line>
		<line class="st2" x1="379.5" y1="299.5" x2="357" y2="324"></line>
		<line class="st2" x1="377.7" y1="333.9" x2="353.1" y2="352"></line>
		<line class="st2" x1="369.9" y1="370.6" x2="349.7" y2="376.8"></line>
	</g>
	<g>
		
			<ellipse transform="matrix(0.7717 -0.6359 0.6359 0.7717 -144.0385 329.609)" class="st3" cx="387.1" cy="365.4" rx="58.8" ry="17.4"></ellipse>
		<line class="st2" x1="432.6" y1="327.9" x2="354.2" y2="392.5"></line>
		<line class="st2" x1="408.5" y1="330.8" x2="402.1" y2="353.1"></line>
		<line class="st2" x1="388.6" y1="342.4" x2="384.7" y2="367.4"></line>
		<line class="st2" x1="364.5" y1="362.2" x2="369.2" y2="380.1"></line>
		<line class="st2" x1="419.5" y1="358.2" x2="393" y2="360.5"></line>
		<line class="st2" x1="399.8" y1="377.5" x2="375.5" y2="374.9"></line>
		<line class="st2" x1="375.4" y1="395" x2="360.1" y2="387.6"></line>
	</g>
</g>
<g>
	<polygon class="st4" points="344.6,407.1 267.2,460.2 190.6,409.5 190.6,301.8 344.6,299.4  "></polygon>
	<polygon class="st5" points="344.6,407.1 267.2,460.2 267.9,317 344.6,299.4  "></polygon>
	<polygon class="st6" points="344.6,299.4 267.9,345.2 190.6,297.7 280.4,256.3  "></polygon>
</g>
<g id="_11">
	<path class="st7" d="M320.5,289.7l-0.1-50.1c0-2-1-4-2.7-5.1l-73.7-42.5c-0.5-0.3-1.1-0.4-1.6-0.2l0,0l-0.1,0.1   c-0.1,0-0.1,0.1-0.1,0.1l-3.4,2.2l2.7,3.4l0,46.6c0,2,1,4,2.7,5.1l68.2,39.3l4.1,5.3l3.1-2l0,0   C320.2,291.3,320.6,290.5,320.5,289.7z"></path>
	<path class="st7" d="M315.7,298.7L315.7,298.7v-3.9l-8.5-1.4l-66-38.1c-1.9-0.8-4-0.8-5.8,0.2l-37.8,21.8l-0.4-0.1l-6.8,0.5   l0.1,4.6l0,0c0,0.6,0.4,1.2,1,1.5l73.6,42.5c1.9,0.8,4,0.8,5.8-0.2l43.5-25.1C315.7,300.5,316.1,299.5,315.7,298.7z"></path>
	<g>
		<path class="st8" d="M265.1,322.2l-73.6-42.5c-1.5-0.9-1.3-2.4,0.4-3.4l43.4-25.1c1.8-1,3.9-1.1,5.8-0.2l73.6,42.6    c1.5,0.9,1.3,2.4-0.4,3.3L270.9,322C269.1,323,266.9,323,265.1,322.2z"></path>
		<path class="st9" d="M284.9,308.3l-69.4-40.1c-0.8-0.5-0.7-1.3,0.2-1.8l20.5-11.8c1-0.5,2.2-0.6,3.2-0.1l69.4,40.1    c0.8,0.5,0.7,1.3-0.2,1.8l-20.5,11.9C287.1,308.7,286,308.7,284.9,308.3z"></path>
		<path class="st9" d="M242.6,303.7l-19.1-11.1c-0.8-0.5-0.7-1.3,0.2-1.8l11.1-6.4c1-0.5,2.2-0.6,3.2-0.1l19.1,11.1    c0.8,0.5,0.7,1.3-0.2,1.8l-11.1,6.4C244.8,304.1,243.6,304.1,242.6,303.7z"></path>
		<path class="st10" d="M242.6,303.7l-19.1-11.1c-0.8-0.5-0.7-1.3,0.2-1.8l1.4-0.8c1-0.5,2.2-0.6,3.2-0.1l19.2,11    c0.8,0.5,0.7,1.3-0.2,1.8l-1.4,0.8C244.8,304.1,243.6,304.1,242.6,303.7z"></path>
		<path class="st10" d="M237.7,260l-2.6-1.5c-0.5-0.3-0.4-0.8,0.1-1.1l2.4-1.4c0.6-0.3,1.3-0.3,1.9-0.1l2.6,1.5    c0.5,0.3,0.4,0.8-0.1,1.1l-2.4,1.4C239,260.3,238.3,260.3,237.7,260z"></path>
		<path class="st10" d="M243.1,263.1l-2.6-1.6c-0.5-0.3-0.4-0.8,0.1-1.1l2.4-1.4c0.6-0.3,1.3-0.3,1.9-0.1l2.6,1.5    c0.5,0.3,0.4,0.8-0.1,1.1l-2.4,1.4C244.4,263.3,243.7,263.4,243.1,263.1z"></path>
		<path class="st10" d="M248.4,266.2l-2.6-1.5c-0.5-0.3-0.4-0.8,0.1-1.1l2.4-1.4c0.6-0.3,1.3-0.3,1.9-0.1l2.6,1.5    c0.5,0.3,0.4,0.8-0.1,1.1l-2.4,1.4C249.7,266.4,249,266.4,248.4,266.2z"></path>
		<path class="st10" d="M253.7,269.3l-2.6-1.5c-0.5-0.3-0.4-0.8,0.1-1.1l2.4-1.4c0.6-0.3,1.3-0.3,1.9-0.1l2.6,1.5    c0.5,0.3,0.4,0.8-0.1,1.1l-2.3,1.4C255,269.5,254.3,269.5,253.7,269.3z"></path>
		<path class="st10" d="M259.1,272.3l-2.6-1.5c-0.5-0.3-0.4-0.8,0.1-1.1l2.4-1.4c0.6-0.3,1.3-0.4,1.9-0.1l2.6,1.5    c0.5,0.3,0.4,0.8-0.1,1.1l-2.4,1.4C260.4,272.6,259.7,272.6,259.1,272.3z"></path>
		<path class="st10" d="M264.4,275.4l-2.6-1.5c-0.5-0.3-0.4-0.8,0.1-1.1l2.4-1.4c0.6-0.3,1.3-0.4,1.9-0.1l2.6,1.5    c0.5,0.3,0.4,0.8-0.1,1.1l-2.4,1.4C265.7,275.7,265,275.7,264.4,275.4z"></path>
		<path class="st10" d="M269.7,278.5l-2.6-1.5c-0.5-0.3-0.4-0.8,0.1-1.1l2.4-1.4c0.6-0.3,1.3-0.4,1.9-0.1l2.6,1.5    c0.5,0.3,0.4,0.8-0.1,1.1l-2.4,1.4C271,278.7,270.3,278.8,269.7,278.5z"></path>
		<path class="st10" d="M275.1,281.5l-2.6-1.5c-0.5-0.3-0.4-0.8,0.1-1.1l2.4-1.4c0.6-0.3,1.3-0.3,1.9-0.1l2.6,1.5    c0.5,0.3,0.4,0.8-0.1,1.1l-2.4,1.4C276.4,281.8,275.7,281.8,275.1,281.5z"></path>
		<path class="st10" d="M280.4,284.7l-2.6-1.5c-0.5-0.3-0.4-0.8,0.1-1.1l2.4-1.4c0.6-0.3,1.3-0.3,1.9-0.1l2.6,1.5    c0.5,0.3,0.4,0.8-0.1,1.1l-2.3,1.3C281.7,284.9,281,284.9,280.4,284.7z"></path>
		<path class="st10" d="M285.8,287.7l-2.6-1.5c-0.5-0.3-0.4-0.8,0.1-1.1l2.4-1.4c0.6-0.3,1.3-0.3,1.9-0.1l2.6,1.5    c0.5,0.3,0.4,0.8-0.1,1.1l-2.4,1.4C287,288,286.3,288,285.8,287.7z"></path>
		<path class="st10" d="M291.1,290.8l-2.6-1.5c-0.5-0.3-0.4-0.8,0.1-1.1l2.4-1.4c0.6-0.3,1.3-0.3,1.9-0.1l2.6,1.5    c0.5,0.3,0.4,0.8-0.1,1.1l-2.4,1.4C292.4,291.1,291.7,291.1,291.1,290.8z"></path>
		<path class="st10" d="M296.4,293.9l-2.6-1.5c-0.5-0.3-0.4-0.8,0.1-1.1l2.4-1.4c0.6-0.3,1.3-0.4,1.9-0.1l2.6,1.5    c0.5,0.3,0.4,0.8-0.1,1.1l-2.4,1.4C297.7,294.2,297,294.2,296.4,293.9z"></path>
		<path class="st10" d="M301.8,297l-2.6-1.5c-0.5-0.3-0.4-0.8,0.1-1.1l2.4-1.4c0.6-0.3,1.3-0.3,1.9-0.1l2.6,1.5    c0.5,0.3,0.4,0.8-0.1,1.1l-2.4,1.4C303,297.2,302.4,297.2,301.8,297z"></path>
		<path class="st10" d="M232.4,263.1l-2.6-1.5c-0.5-0.3-0.4-0.8,0.1-1.1l2.4-1.4c0.6-0.3,1.3-0.3,1.9-0.1l2.7,1.5    c0.5,0.3,0.4,0.8-0.1,1.1l-2.4,1.4C233.7,263.3,233,263.3,232.4,263.1z"></path>
		<path class="st10" d="M237.8,266.1l-2.6-1.5c-0.5-0.3-0.4-0.8,0.1-1.1l2.4-1.4c0.6-0.3,1.3-0.3,1.9-0.1l2.6,1.5    c0.5,0.3,0.4,0.8-0.1,1.1l-2.4,1.4C239.1,266.4,238.4,266.4,237.8,266.1z"></path>
		<path class="st10" d="M243.1,269.2l-2.6-1.5c-0.5-0.3-0.4-0.8,0.1-1.1l2.4-1.4c0.6-0.3,1.3-0.3,1.9-0.1l2.6,1.5    c0.5,0.3,0.4,0.8-0.1,1.1l-2.4,1.4C244.4,269.5,243.7,269.5,243.1,269.2z"></path>
		<path class="st10" d="M248.5,272.3l-2.6-1.5c-0.5-0.3-0.4-0.8,0.1-1.1l2.4-1.4c0.6-0.3,1.3-0.4,1.9-0.1l2.6,1.5    c0.5,0.3,0.4,0.8-0.1,1.1l-2.4,1.4C249.8,272.5,249.1,272.6,248.5,272.3z"></path>
		<path class="st10" d="M253.8,275.4l-2.6-1.5c-0.5-0.3-0.4-0.8,0.1-1.1l2.4-1.4c0.6-0.3,1.3-0.3,1.9-0.1l2.6,1.5    c0.5,0.3,0.4,0.8-0.1,1.1l-2.4,1.4C255.1,275.6,254.4,275.6,253.8,275.4z"></path>
		<path class="st10" d="M259.1,278.5l-2.6-1.5c-0.5-0.3-0.4-0.8,0.1-1.1l2.4-1.4c0.6-0.3,1.3-0.4,1.9-0.1l2.6,1.5    c0.5,0.3,0.4,0.8-0.1,1.1l-2.4,1.4C260.4,278.7,259.7,278.7,259.1,278.5z"></path>
		<path class="st10" d="M264.5,281.5l-2.6-1.5c-0.5-0.3-0.4-0.8,0.1-1.1l2.4-1.4c0.6-0.3,1.3-0.3,1.9-0.1l2.6,1.5    c0.5,0.3,0.4,0.8-0.1,1.1l-2.4,1.4C265.8,281.8,265.1,281.8,264.5,281.5z"></path>
		<path class="st10" d="M269.8,284.6l-2.6-1.5c-0.5-0.3-0.4-0.8,0.1-1.1l2.4-1.4c0.6-0.3,1.3-0.3,1.9-0.1l2.6,1.5    c0.5,0.3,0.4,0.8-0.1,1.1l-2.4,1.4C271.1,284.9,270.4,284.9,269.8,284.6z"></path>
		<path class="st10" d="M275.1,287.7l-2.6-1.5c-0.5-0.3-0.4-0.8,0.1-1.1l2.4-1.4c0.6-0.3,1.3-0.3,1.9-0.1l2.6,1.5    c0.5,0.3,0.4,0.8-0.1,1.1l-2.4,1.4C276.4,287.9,275.7,288,275.1,287.7z"></path>
		<path class="st10" d="M280.5,290.8l-2.6-1.5c-0.5-0.3-0.4-0.8,0.1-1.1l2.4-1.4c0.6-0.3,1.3-0.4,1.9-0.1l2.6,1.5    c0.5,0.3,0.4,0.8-0.1,1.1l-2.4,1.4C281.8,291,281.1,291.1,280.5,290.8z"></path>
		<path class="st10" d="M285.8,293.9l-2.6-1.5c-0.5-0.3-0.4-0.8,0.1-1.1l2.4-1.4c0.6-0.3,1.3-0.3,1.9-0.1l2.6,1.5    c0.5,0.3,0.4,0.8-0.1,1.1l-2.4,1.4C287.1,294.1,286.4,294.1,285.8,293.9z"></path>
		<path class="st10" d="M291.1,296.9l-2.6-1.5c-0.5-0.3-0.4-0.8,0.1-1.1l2.4-1.4c0.6-0.3,1.3-0.3,1.9-0.1l2.6,1.5    c0.5,0.3,0.4,0.8-0.1,1.1l-2.4,1.4C292.4,297.2,291.8,297.2,291.1,296.9z"></path>
		<path class="st10" d="M296.5,300l-2.6-1.5c-0.5-0.3-0.4-0.8,0.1-1.1l2.4-1.4c0.6-0.3,1.3-0.3,1.9-0.1l2.6,1.5    c0.5,0.3,0.4,0.8-0.1,1.1l-2.4,1.4C297.8,300.3,297.1,300.3,296.5,300z"></path>
		<path class="st10" d="M227.2,266.1l-2.7-1.6c-0.5-0.3-0.4-0.8,0.1-1.1l2.4-1.4c0.6-0.3,1.3-0.4,1.9-0.1l2.6,1.5    c0.5,0.3,0.4,0.8-0.1,1.1L229,266C228.5,266.3,227.8,266.4,227.2,266.1z"></path>
		<path class="st10" d="M232.5,269.2l-2.6-1.5c-0.5-0.3-0.4-0.8,0.1-1.1l2.4-1.4c0.6-0.3,1.3-0.3,1.9-0.1l2.6,1.5    c0.5,0.3,0.4,0.8-0.1,1.1l-2.4,1.4C233.8,269.4,233.1,269.5,232.5,269.2z"></path>
		<path class="st10" d="M237.8,272.3l-2.6-1.5c-0.5-0.3-0.4-0.8,0.1-1.1l2.3-1.4c0.6-0.3,1.3-0.4,1.9-0.1l2.6,1.5    c0.5,0.3,0.4,0.8-0.1,1.1l-2.4,1.4C239.1,272.5,238.4,272.5,237.8,272.3z"></path>
		<path class="st10" d="M243.2,275.4l-2.6-1.5c-0.5-0.3-0.4-0.8,0.1-1.1l2.4-1.4c0.6-0.3,1.3-0.3,1.9-0.1l2.6,1.5    c0.5,0.3,0.4,0.8-0.1,1.1l-2.4,1.4C244.5,275.6,243.8,275.6,243.2,275.4z"></path>
		<path class="st10" d="M248.5,278.4l-2.6-1.5c-0.5-0.3-0.4-0.8,0.1-1.1l2.4-1.4c0.6-0.3,1.3-0.3,1.9-0.1l2.6,1.5    c0.5,0.3,0.4,0.8-0.1,1.1l-2.4,1.4C249.8,278.7,249.1,278.7,248.5,278.4z"></path>
		<path class="st10" d="M253.8,281.5l-2.6-1.5c-0.5-0.3-0.4-0.8,0.1-1.1l2.4-1.4c0.6-0.3,1.3-0.3,1.9-0.1l2.6,1.5    c0.5,0.3,0.4,0.8-0.1,1.1l-2.4,1.4C255.1,281.8,254.4,281.8,253.8,281.5z"></path>
		<path class="st10" d="M259.2,284.6l-2.6-1.5c-0.5-0.3-0.4-0.8,0.1-1.1l2.4-1.4c0.6-0.3,1.3-0.4,1.9-0.1l2.6,1.5    c0.5,0.3,0.4,0.8-0.1,1.1l-2.4,1.4C260.5,284.9,259.8,284.9,259.2,284.6z"></path>
		<path class="st10" d="M264.5,287.7l-2.6-1.5c-0.5-0.3-0.4-0.8,0.1-1.1l2.4-1.4c0.6-0.3,1.3-0.4,1.9-0.1l2.6,1.5    c0.5,0.3,0.4,0.8-0.1,1.1l-2.4,1.4C265.8,287.9,265.1,287.9,264.5,287.7z"></path>
		<path class="st10" d="M269.9,290.8l-2.6-1.5c-0.5-0.3-0.4-0.8,0.1-1.1l2.4-1.4c0.6-0.3,1.3-0.4,1.9-0.1l2.6,1.5    c0.5,0.3,0.4,0.8-0.1,1.1l-2.4,1.4C271.1,291,270.4,291,269.9,290.8z"></path>
		<path class="st10" d="M280.6,296.9l-2.6-1.5c-0.5-0.3-0.4-0.8,0.1-1.1l2.4-1.4c0.6-0.3,1.3-0.3,1.9-0.1l2.6,1.5    c0.5,0.3,0.4,0.8-0.1,1.1l-2.4,1.4C281.9,297.2,281.2,297.2,280.6,296.9z"></path>
		<path class="st10" d="M285.9,300l-2.6-1.5c-0.5-0.3-0.4-0.8,0.1-1.1l2.4-1.4c0.6-0.3,1.3-0.3,1.9-0.1l2.6,1.5    c0.5,0.3,0.4,0.8-0.1,1.1l-2.4,1.4C287.2,300.2,286.5,300.3,285.9,300z"></path>
		<path class="st10" d="M291.2,303.1l-2.6-1.5c-0.5-0.3-0.4-0.8,0.1-1.1l2.4-1.4c0.6-0.3,1.3-0.4,1.9-0.1l2.6,1.5    c0.5,0.3,0.4,0.8-0.1,1.1l-2.4,1.4C292.5,303.3,291.8,303.4,291.2,303.1z"></path>
		<path class="st10" d="M221.9,269.1l-2.6-1.5c-0.5-0.3-0.4-0.8,0.1-1.1l2.4-1.4c0.6-0.3,1.3-0.4,1.9-0.1l2.6,1.5    c0.5,0.3,0.4,0.8-0.1,1.1l-2.4,1.4C223.2,269.4,222.5,269.4,221.9,269.1z"></path>
		<path class="st10" d="M227.2,272.2l-2.6-1.5c-0.5-0.3-0.4-0.8,0.1-1.1l2.4-1.4c0.6-0.3,1.3-0.3,1.9-0.1l2.6,1.5    c0.5,0.3,0.4,0.8-0.1,1.1l-2.4,1.4C228.5,272.5,227.8,272.5,227.2,272.2z"></path>
		<path class="st10" d="M248.6,284.5l-18.7-10.8c-0.5-0.3-0.4-0.8,0.1-1.1l2.4-1.4c0.6-0.3,1.3-0.3,1.9-0.1l18.7,10.8    c0.5,0.3,0.4,0.8-0.1,1.1l-2.4,1.4C249.9,284.8,249.2,284.8,248.6,284.5z"></path>
		<path class="st10" d="M253.9,287.6l-2.6-1.5c-0.5-0.3-0.4-0.8,0.1-1.1l2.4-1.4c0.6-0.3,1.3-0.4,1.9-0.1l2.6,1.5    c0.5,0.3,0.4,0.8-0.1,1.1l-2.3,1.3C255.2,287.9,254.5,287.9,253.9,287.6z"></path>
		<path class="st10" d="M259.3,290.7l-2.7-1.5c-0.5-0.3-0.4-0.8,0.1-1.1l2.4-1.4c0.6-0.3,1.3-0.3,1.9-0.1l2.6,1.5    c0.5,0.3,0.4,0.8-0.1,1.1l-2.4,1.4C260.5,290.9,259.9,291,259.3,290.7z"></path>
		<path class="st10" d="M279.6,297.5l-4.5-2.6l4.4-2.5c0.5-0.3,0.5-0.7,0-1l-2.6-1.5c-0.5-0.3-1.2-0.3-1.7,0l-4.4,2.5l-4.5-2.6    c-0.5-0.3-1.2-0.3-1.7,0l-2.6,1.5c-0.3,0.1-0.4,0.4-0.3,0.7c0.1,0.2,0.2,0.3,0.3,0.3l5.4,3.1l2.6,1.5l5.3,3.1    c0.5,0.3,1.2,0.3,1.7,0l2.6-1.5c0.3-0.1,0.4-0.4,0.3-0.7C279.9,297.6,279.8,297.5,279.6,297.5z"></path>
		<path class="st10" d="M280.6,303l-2.6-1.5c-0.5-0.3-0.4-0.8,0.1-1.1l2.4-1.4c0.6-0.3,1.3-0.4,1.9-0.1l2.6,1.5    c0.5,0.3,0.4,0.8-0.1,1.1l-2.4,1.4C281.9,303.3,281.2,303.3,280.6,303z"></path>
		<path class="st10" d="M285.9,306.1l-2.6-1.5c-0.5-0.3-0.4-0.8,0.1-1.1l2.4-1.4c0.6-0.3,1.3-0.3,1.9-0.1l2.6,1.5    c0.5,0.3,0.4,0.8-0.1,1.1l-2.4,1.4C287.2,306.4,286.5,306.4,285.9,306.1z"></path>
	</g>
	<g>
		<path class="st8" d="M314.5,293.8l-73.7-42.4c-1.7-1.2-2.7-3.1-2.7-5.1l-0.1-50.2c0-2,1.2-2.9,2.7-2l73.7,42.4    c1.7,1.2,2.7,3.1,2.7,5.1l0.1,50.2C317.2,293.8,316,294.7,314.5,293.8z"></path>
		<path class="st11" d="M312.4,287.9l-69.4-40c-0.9-0.7-1.5-1.7-1.5-2.8l-0.1-44.7c0-1.1,0.7-1.6,1.5-1.1l69.4,40    c0.9,0.7,1.5,1.7,1.5,2.8l0.1,44.7C313.9,287.9,313.2,288.4,312.4,287.9z"></path>
		<path class="st12" d="M278.4,217.7c0,0.5-0.4,0.7-0.8,0.5c-0.5-0.3-0.8-0.8-0.8-1.4c0-0.5,0.4-0.7,0.8-0.5    C278.1,216.6,278.4,217.2,278.4,217.7z"></path>
	</g>
</g>
<path class="st13" d="M232.1,307.7c0,0,8.2,2.4,11.2,1.9s11.9-4.8,11.7-6.3s-2.6-2.7-5.3-2.3s-6.3,2.4-7.3,2.4  c-2.5,0-6.4-3.7-10.9-2.2S232.1,307.7,232.1,307.7z"></path>
<linearGradient id="SVGID_1_" gradientUnits="userSpaceOnUse" x1="1290.25" y1="285.47" x2="1290.27" y2="285.48" gradientTransform="matrix(1 0 0 -1 -995.1299 525.54)">
	<stop offset="0" style="stop-color:#5A6DDB"></stop>
	<stop offset="1" style="stop-color:#7B8AE9"></stop>
</linearGradient>
<path class="st14" d="M295,239.8c0.1,0.1,0.2,0.3,0.3,0.5C295.2,240.2,295.1,240,295,239.8z"></path>
<g>
	<path class="st1" d="M263.4,125.4l167.2,94.1c6.7,1.9,18.8-2.7,18.8-9.6V100.7c0-4.7-3.2-7.8-7.7-10.2L272.3,0.4   c-6.7-1.9-19.8,3.1-19.8,9.5l3.3,105.3C255.7,120,258.9,124.2,263.4,125.4z"></path>
	<path class="st15" d="M259.4,126.2l169.8,93.4c5.5,1.5,11.1-1.8,12.6-7.2c0.2-0.9,0.4-1.8,0.4-2.7V103.5c0-4.6-2.7-7.2-7.6-9.9   l-169.8-91c-5.4-1.6-11,1.4-12.6,6.8c-0.3,1-0.4,2.1-0.4,3.1v103.8C251.9,120.9,254.5,123.1,259.4,126.2z"></path>
	<path class="st10" d="M262.1,123.7l165,91.7c7.6,3.9,12.5-3,12.5-9.4V105.5c0-4.4-2.9-7.1-7.2-9.4l-165-89.3   c-6.9-3.3-12.5-0.8-12.5,9.4v98.1C254.9,118.7,257.5,121.4,262.1,123.7z"></path>
	<path class="st6" d="M260.2,55l28.3,15.7c1.3,0.7,2.1-0.5,2.1-1.6V51.9c0-0.8-0.5-1.2-1.2-1.6L261.1,35c-1.2-0.6-2.1-0.1-2.1,1.6   v16.8C258.9,54.2,259.4,54.6,260.2,55z"></path>
	<path class="st6" d="M297.9,104.1l28.3,15.7c1.3,0.7,2.1-0.5,2.1-1.6v-17.2c0-0.8-0.5-1.2-1.2-1.6L298.8,84   c-1.2-0.6-2.1-0.1-2.1,1.6v16.8C296.7,103.2,297.1,103.7,297.9,104.1z"></path>
	<path class="st6" d="M297.9,131.3l28.3,15.7c1.3,0.7,2.1-0.5,2.1-1.6v-17.2c0-0.7-0.5-1.2-1.2-1.6l-28.3-15.3   c-1.2-0.6-2.1-0.1-2.1,1.6v16.8C296.7,130.4,297.1,130.9,297.9,131.3z"></path>
	<path class="st6" d="M359.1,104.1l28.3,15.7c1.3,0.7,2.1-0.5,2.1-1.6v-17.2c0-0.8-0.5-1.2-1.2-1.6L360,84c-1.2-0.6-2.1-0.1-2.1,1.6   v16.8C357.9,103.2,358.3,103.7,359.1,104.1z"></path>
	<path class="st6" d="M390.8,180.9l28.3,15.7c1.3,0.7,2.1-0.5,2.1-1.6v-17.2c0-0.8-0.5-1.2-1.2-1.6l-28.3-15.3   c-1.2-0.6-2.1-0.1-2.1,1.6v16.8C389.6,180,390,180.5,390.8,180.9z"></path>
</g>
<circle class="st16" cx="82.1" cy="167" r="39"></circle>
<circle cx="397.5" cy="23.3" r="10.9"></circle>
<g>
	
		<ellipse transform="matrix(0.217 -0.9762 0.9762 0.217 -310.0605 571.1984)" class="st17" cx="201" cy="478.9" rx="24.4" ry="66.3"></ellipse>
	<path d="M171.3,246.9c2.5,7.7,8.8,10.6,14.7,12.3c6.3,1.7,12.9,2.1,19.3,1.1c0.2,0,0.4-0.1,0.7-0.1l-2.3,2.9l-1.3,4.4v15.9   l18.4,22.9c0,0,0.6,0.5,1.6,1.3c-0.2-6.6-0.4-13.1-0.6-18.5c0-11.5-2.5-27.5-4.7-32.3c-0.4-0.8-0.9-1.6-1.6-2.3   c-0.8-0.8-1.5-1.5-2.1-2.1c-8.6-8.3-10-7.1-10-7.1l-19.2-7l-0.9-0.3c-0.4,0-0.8,0-1.2,0.1l0,0c-0.4,0.1-1,0.2-1.7,0.3   s-1.5,0.4-2.4,0.6v-1.4c-0.6-0.1-1.2-0.2-1.8-0.2c0.3,0,0.6,0.1,0.8,0.2C173,239.8,170.1,243.1,171.3,246.9z"></path>
	<path class="st18" d="M154.1,264c0.2-3.1,0.7-6.3,1.5-9.3C154.7,257.7,154.2,260.9,154.1,264z"></path>
	<path d="M187.9,259.6c16.2,2.6,26.8-5.8,26.8-5.8c-0.4-0.4-0.9-0.9-1.3-1.2c-7.3,5.1-16.4,7.1-25.2,5.6   c-15.3-2.4-16.7-8.9-16.3-13.3c0.4-3.8,5.1-6.5,6.1-7l-1.7-0.2c0,0-5.4,3.1-5.8,7.7C170,250,171.6,257,187.9,259.6z"></path>
	<g>
		<path class="st13" d="M194.1,418.8c0,14.5-10.2,31.2-8.4,50.5c0.1,1.4,7.1-0.9,9.8,1.1c2.7,1.9-16.6,8.6-18.2,8.6    c-2.1,0,1.5-5.4,0.7-12.8c-1.8-16.4-15.1-36.9-6.3-55c3.9-8.1-8.3-20.3-7.1-27c1.7-9.6,24.5-16.8,27.6-16.8    c4.3,0,7.5,22.3,1.9,40.4C192.8,412.4,194.1,414.9,194.1,418.8z"></path>
		<path class="st19" d="M194.5,418.8c0,14.5-10.2,31.2-8.4,50.5c0.1,1.4,7.1-0.9,9.8,1.1c2.7,1.9-9.6,4.6-11.2,4.6    c-1,0-0.7-32.4-7.3-49.3c-10.3-26.4,13.6-58.3,15.3-58.3c4.3,0,7.5,22.3,1.9,40.4C193.2,412.4,194.5,414.9,194.5,418.8z"></path>
		<g>
			<path d="M192,476.1c-3.7,1.9-4.9,4.3-12.3,4.6l-2.4-1.1c-2.3-1.4-0.5-6.1,0.9-8.4c0,1.7,2.3,3.3,10.7,1.6c12.3-3.4,1-3.3,1-3.3     c0.9-0.9,6.6-1.5,7.5-0.9c1.8,1,1.7,2.7,0.7,4.5C197.8,473.7,192,476.1,192,476.1z"></path>
		</g>
	</g>
	<path class="st20" d="M206.3,189c-11.7,2.1-17.6,28.8-22.6,36.1c-3.6,5.3-29.8-7.6-21.4-46.5c2.1-9.5,10.6-17,21.8-17.1   C223,165.5,227.1,203.6,206.3,189z"></path>
	<path class="st13" d="M214.2,226c-0.3,0.8-0.7,1.5-1.3,2.2c-5.6,7.2-16.3,7.6-22.9,5.8c-2.8-0.8-3.2-8.3-2.8-16.9   c0.6-12.2,2.8-26.7,2.8-26.7l27.3,1.9C217.4,192.2,218.4,216.5,214.2,226z"></path>
	<path class="st10" d="M178.4,238.8c-2.3,1.9-2.8,5.3-1.1,7.8c2.9,4.6,9.9,6.7,16.5,5.7s13.9-4.1,14.6-4.1s-5-4.5-5-4.5L178.4,238.8   z"></path>
	<g>
		<path class="st13" d="M217.6,422.7c0,14.5-10.2,31.2-8.4,50.5c0.1,1.4,7.1-0.9,9.8,1.1c2.7,1.9-16.6,8.6-18.2,8.6    c-2.1,0,1.5-5.4,0.7-12.8c-1.8-16.4-15.1-36.9-6.3-55c3.9-8.1-8.3-20.3-7.1-27c1.7-9.6,24.5-16.8,27.6-16.8    c4.3,0,7.5,22.3,1.9,40.4C216.3,416.3,217.6,418.8,217.6,422.7z"></path>
		<g>
			<path d="M215.5,480c-3.7,1.9-4.9,4.3-12.3,4.6l-2.4-1.1c-2.3-1.4-0.5-6.1,0.9-8.4c0,1.7,2.3,3.3,10.7,1.6c12.3-3.4,1-3.3,1-3.3     c0.9-0.9,6.6-1.5,7.5-0.9c1.8,1,1.7,2.7,0.7,4.5C221.3,477.6,215.5,480,215.5,480z"></path>
		</g>
	</g>
	<path class="st13" d="M193.4,220.5L193.4,220.5l-6.2-3.4c-0.3,4-0.2,8,0.4,12l0,0l-9.6-3.1v16.3c0.1,2.5,1.6,4.7,3.8,5.8   c5.1,2.6,12.9,2.6,18,0c4.3-2.2,3.7-5.1,3.7-5.1v-8.8l0,0c1.4-0.3,2.7-0.8,3.9-1.4c2.2-1,4.1-2.6,5.6-4.4c0.5-0.7,0.9-1.4,1.2-2.2   C202.3,232.7,193.4,220.5,193.4,220.5z"></path>
	<path class="st21" d="M218.9,187.8c-0.2,4.9-3.4,5.8-7.2,9.5c-5.4,5.4-1.3,8.2-5.1,8.8s-1.2-5.5-8-0.9c-3.7,2.5-4.6,14.3-6.1,18.1   c-3.5,8.7-12.8,9.1-18.6,3.4c-5.8-5.8-10.7-14.2-12.2-22.3c3.1,10.3,16.4,21.9,19.9,16.6c5-7.3-1.6-21.9,2.4-27.1   c4.5-6,10.5-2.8,22.2-4.9s6.5-10.7,4.9-15.8l0,0C217.5,179,218.9,185.3,218.9,187.8z"></path>
	<path d="M205.1,291.8c4,6.6,18.5,31.9,27.4,31.8c8.9-0.1,10.3-9,8.6-15.5c-0.1-0.5-0.3-1-0.5-1.5c-2.3-6.6-15-47.6-24-49.9   c-4.4-1.1-8.4,0.9-11.4,4.4c-1.5,1.8-2.7,3.8-3.6,6C198.8,273.7,201,285.2,205.1,291.8z"></path>
	<path class="st22" d="M204.9,403.3v8.8l9.9,3.3c2.2,0,0.5-7,0.5-7c0.4-11.7,5.5-23.4,5.3-35.2C218,373.8,204.9,377.6,204.9,403.3z"></path>
	<path class="st22" d="M187,408.7c-0.8,6.4,1.5-13,2.2-19.3c-3.5,3.3-7,9-8.9,18.6C180.3,408,187,407.9,187,408.7z"></path>
	<path class="st23" d="M205.1,291.8c4,6.6,18.5,31.9,27.4,31.8c8.9-0.1,10.3-9,8.6-15.5l0,0c-7.8,8.5-18.7-4-29.6-19.4   s-6.3-27.5-6.3-27.5h-0.1c-1.5,1.8-2.7,3.8-3.6,6C198.8,273.7,201,285.2,205.1,291.8z"></path>
	<path d="M156,253.4c1.6-5.2,5-9.6,9.5-12.6c0.6-0.4,1.3-0.8,1.9-1.2c2.7-1.5,5.7-2.2,8.8-1.9C165.5,234.9,159,243.1,156,253.4z"></path>
	<path class="st24" d="M169.3,405.3c1.8,4,24.1,0.7,47.5,10.1c1.7-0.1,8.7-23.3,8.7-49c-0.1-11.2-0.8-14.5-2.1-25.6   c-0.1-0.8-5.2-1.2-5.2-1.2c-8.7,0.9-16.1,1.8-21.9,3.6c-0.4-3.3-1.9,0.6-1.9,0.6l-32.5-3.5l-0.7-0.1v0.1c0,0.3-0.1,0.8-0.1,1.8   c-0.1,1.3-2.1,3.1-2.2,5.6C158.8,351.9,153.9,360.9,169.3,405.3z"></path>
	<path d="M208.4,369.4c1.9-0.6,3.7-1.5,5.4-2.5c6.5-3.8,11.8-6.7,11.4-11.6c0,0,1.3-13.4-6.3-30.3h-1.1   C199.6,323.8,206.4,354.5,208.4,369.4z"></path>
	<path class="st23" d="M154.8,302.7c0.1,2.2,4,6.6,4.8,6.4c0,0,3.2-0.5,4.2-2c1.7-2.5,7.3,1.5,4.7,7.4c-9.1,20.4-10,34.4-10.1,35.9   c-0.5,5.2,4.7,12.6,11.6,16.5c3.1,1.7,6.4,3,9.8,3.8l1.6-17l1.7,17.7c9.9,1.5,18.5,0.5,25.4-2c-2-14.9-7.9-45.6,10.4-44.3h0.1   c-0.2-5.6,3.6-11.6,3.4-17.4c-1-0.8-1.6-1.3-1.6-1.3l-18.4-22.8v-15.9l1.3-4.4l2.3-2.9c-0.2,0.1-0.4,0.1-0.7,0.1   c-6.4,1-13,0.6-19.3-1.1c-5.9-1.8-12.2-4.6-14.7-12.3c-1.2-3.9,1.6-7.1,5.7-9c-0.3-0.1-0.6-0.2-0.8-0.2c-3.1-0.3-6.2,0.4-8.8,1.9   c-0.6,0.4-1.3,0.8-1.9,1.2c-9,6.1-11.5,15.6-11.5,27.3C153.9,268.1,153.5,284.7,154.8,302.7z"></path>
	<path class="st21" d="M173.4,187.7c3.2,11.2,2.1,26.9-3,40.6c-5.1,14-14.3,25.8-27.1,28.6c-6.3,1.4,24.2-14.3,6.7-57.6   c-6.5-16.1,5.2-22.2,11.7-22.2C168.2,177.1,171.8,182.1,173.4,187.7z"></path>
</g>
</svg>
