<?xml version="1.0" encoding="UTF-8"?>
<svg xmlns="http://www.w3.org/2000/svg" xmlns:xlink="http://www.w3.org/1999/xlink" viewBox="0 0 554.55 472.56">
  <defs>
    <linearGradient id="linear-gradient" x1="1249.05" y1="186.5" x2="1249.06" y2="186.5" gradientTransform="translate(-974.72)" gradientUnits="userSpaceOnUse">
      <stop offset="0" stop-color="#5a6ddb"></stop>
      <stop offset="1" stop-color="#7b8ae9"></stop>
    </linearGradient>
  </defs>
  <g style="isolation: isolate">
    <g id="Layer_1" data-name="Layer 1">
      <ellipse cx="277.28" cy="315.16" rx="277.28" ry="157.4" style="fill: #004ea4;opacity: 0.03"></ellipse>
      <g>
        <path d="M388.68,397.33l-86.74-50.08c-9.78-5.65-17.71-20.8-17.71-33.85v-231c0-6.63-5.45-8.1-2.15-10.48.12-.09,7.74-3.55,7.89-3.61,3.55-1.36,7.36-2,12,.7l86.74,50.08c9.78,5.65,17.72,20.8,17.72,33.85v231c0,6.93-2.24,11.87-5.81,14.13-.21.13-9.39,4.5-9.62,4.58C387.8,403.7,393,399.8,388.68,397.33Z" transform="translate(-21.38 -67.16)" style="fill: #0063cf"></path>
        <path d="M380.4,401.24l-86.74-50.07c-9.78-5.65-17.71-20.81-17.71-33.85v-231c0-13,7.93-19,17.71-13.39L380.4,123c9.78,5.65,17.71,20.81,17.71,33.85v231C398.11,400.89,390.18,406.89,380.4,401.24Z" transform="translate(-21.38 -67.16)" style="fill: #004ea4"></path>
        <path d="M278.36,318.85V87.58c0-11.43,7-16.69,15.53-11.74l86.28,49.81c8.58,4.95,15.53,18.24,15.53,29.67V386.6c0,11.43-6.95,16.69-15.53,11.74l-86.28-49.81C285.32,343.57,278.36,330.29,278.36,318.85Z" transform="translate(-21.38 -67.16)" style="fill: #1a2a42"></path>
        <path d="M281.82,320.26V90.16c0-9.57,5.82-14,13-9.83l84.44,48.75c7.18,4.15,13,15.27,13,24.84V384c0,9.57-5.82,14-13,9.83L294.81,345.1C287.64,341,281.82,329.83,281.82,320.26Z" transform="translate(-21.38 -67.16)" style="fill: #1a2a42"></path>
        <path d="M368,125.48c0,4.78-3.37,6.7-7.54,4.3l-46.92-27.09a16.64,16.64,0,0,1-7.54-13l-10-5.75c-6.72-3.88-12.16-.77-12.16,6.94V322c0,7.71,5.44,17.1,12.16,21L378,390.25c6.72,3.88,12.17.77,12.17-6.94V152.21c0-7.71-5.45-17.1-12.17-21Z" transform="translate(-21.38 -67.16)" style="fill: #fff"></path>
        <path d="M400.44,210.31v-15.6a6.5,6.5,0,0,1,2.71-5.17h0c1.5-.86,2.71.05,2.71,2.05v15.59a6.49,6.49,0,0,1-2.71,5.18h0C401.66,213.22,400.44,212.3,400.44,210.31Z" transform="translate(-21.38 -67.16)" style="fill: #004ea4"></path>
        <path d="M402.08,212.09c-.78,0-1.05-1-1.05-1.78v-15.6a5.92,5.92,0,0,1,2.41-4.66,1.65,1.65,0,0,1,.79-.25c.77,0,1,1,1,1.79v15.59a6,6,0,0,1-2.41,4.67A1.62,1.62,0,0,1,402.08,212.09Z" transform="translate(-21.38 -67.16)" style="fill: #004ea4"></path>
        <path d="M401.83,210.71v-15.6a5.92,5.92,0,0,1,2.41-4.66,1.6,1.6,0,0,1,.7-.23.85.85,0,0,0-.71-.42,1.65,1.65,0,0,0-.79.25,5.92,5.92,0,0,0-2.41,4.66v15.6c0,.82.27,1.78,1.05,1.78h.08A2.67,2.67,0,0,1,401.83,210.71Z" transform="translate(-21.38 -67.16)" style="fill: #0063cf"></path>
        <path d="M378.27,130.5l-10-5.79c0,4.81-3.4,6.75-7.59,4.33l-47.25-27.28a16.7,16.7,0,0,1-7.59-13.1l-10-5.78c-6.76-3.91-12.25-.78-12.25,7V322.55c0,7.76,5.49,17.23,12.25,21.13l82.48,47.62c6.77,3.91,12.25.78,12.25-7V151.63C390.52,143.86,385,134.4,378.27,130.5Zm11.19,253.82a9.07,9.07,0,0,1-1.64,5.72,5,5,0,0,1-4.05,1.88h0a10.24,10.24,0,0,1-5-1.54l-82.47-47.62c-6.47-3.73-11.72-12.8-11.72-20.21V89.86c0-4.69,2.18-7.6,5.68-7.6a10.21,10.21,0,0,1,5,1.54l9.51,5.49a17.75,17.75,0,0,0,8.1,13.39L360.12,130a7.93,7.93,0,0,0,3.94,1.19c2.69,0,4.57-1.79,5.1-4.68l8.58,4.95c6.46,3.73,11.72,12.8,11.72,20.21Z" transform="translate(-21.38 -67.16)" style="fill: none;mix-blend-mode: multiply"></path>
      </g>
      <g>
        <path d="M326,455.31H267.28v8.27h0c0,.08,0,.16,0,.24,0,9.43,13.13,17.08,29.33,17.08S326,473.25,326,463.82c0-.08,0-.16,0-.24h0Z" transform="translate(-21.38 -67.16)" style="fill: #f49126"></path>
        <g>
          <path d="M305.6,480.08l.82-.18V458.21h-.82Z" transform="translate(-21.38 -67.16)" style="fill: #b66b29"></path>
          <path d="M313,478c.28-.11.54-.24.82-.36V458.21H313Z" transform="translate(-21.38 -67.16)" style="fill: #b66b29"></path>
          <path d="M320.34,473.83c.28-.22.56-.44.82-.68V458.21h-.82Z" transform="translate(-21.38 -67.16)" style="fill: #b66b29"></path>
          <path d="M298.23,480.85l.82,0V458.21h-.82Z" transform="translate(-21.38 -67.16)" style="fill: #b66b29"></path>
          <path d="M290.86,480.57l.82.07V458.21h-.82Z" transform="translate(-21.38 -67.16)" style="fill: #b66b29"></path>
          <path d="M283.49,479.08l.82.23v-21.1h-.82Z" transform="translate(-21.38 -67.16)" style="fill: #b66b29"></path>
          <path d="M268.75,469.14a12.83,12.83,0,0,0,.82,1.3V458.21h-.82Z" transform="translate(-21.38 -67.16)" style="fill: #b66b29"></path>
          <path d="M276.12,476c.26.15.55.29.82.43V458.21h-.82Z" transform="translate(-21.38 -67.16)" style="fill: #b66b29"></path>
        </g>
        <ellipse cx="275.23" cy="388.26" rx="29.33" ry="17.08" style="fill: #f49126"></ellipse>
        <path d="M296.61,472.05c-15.85,0-28.74-7.33-29.28-16.49,0,.2-.05.4-.05.6,0,9.43,13.13,17.08,29.33,17.08S326,465.59,326,456.16c0-.2,0-.4-.06-.6C325.35,464.72,312.47,472.05,296.61,472.05Z" transform="translate(-21.38 -67.16)" style="fill: #b66b29"></path>
        <path d="M318.54,455.42c0,7.06-9.82,12.77-21.93,12.77s-21.92-5.71-21.92-12.77,9.81-12.76,21.92-12.76S318.54,448.37,318.54,455.42Z" transform="translate(-21.38 -67.16)" style="fill: #e58627"></path>
        <path d="M296.61,444c11.72,0,21.26,5.35,21.87,12.08,0-.23.06-.45.06-.69,0-7.05-9.82-12.76-21.93-12.76s-21.92,5.71-21.92,12.76a5.2,5.2,0,0,0,.06.69C275.36,449.38,284.9,444,296.61,444Z" transform="translate(-21.38 -67.16)" style="fill: #b66b29"></path>
      </g>
      <g>
        <path d="M103.38,369.36H52.12v7.23h0v.21c0,8.24,11.47,14.92,25.63,14.92s25.63-6.68,25.63-14.92c0-.07,0-.14,0-.21h0Z" transform="translate(-21.38 -67.16)" style="fill: #f49126"></path>
        <g>
          <path d="M85.6,391c.24,0,.47-.1.71-.15v-19H85.6Z" transform="translate(-21.38 -67.16)" style="fill: #b66b29"></path>
          <path d="M92,389.19l.71-.31v-17H92Z" transform="translate(-21.38 -67.16)" style="fill: #b66b29"></path>
          <path d="M98.48,385.55c.24-.2.49-.39.71-.59V371.9h-.71Z" transform="translate(-21.38 -67.16)" style="fill: #b66b29"></path>
          <path d="M79.16,391.68l.72,0V371.9h-.72Z" transform="translate(-21.38 -67.16)" style="fill: #b66b29"></path>
          <path d="M72.72,391.43l.72.07V371.9h-.72Z" transform="translate(-21.38 -67.16)" style="fill: #b66b29"></path>
          <path d="M66.28,390.13l.72.2V371.9h-.72Z" transform="translate(-21.38 -67.16)" style="fill: #b66b29"></path>
          <path d="M53.4,381.44a11.59,11.59,0,0,0,.72,1.15V371.9H53.4Z" transform="translate(-21.38 -67.16)" style="fill: #b66b29"></path>
          <path d="M59.84,387.47l.72.38v-16h-.72Z" transform="translate(-21.38 -67.16)" style="fill: #b66b29"></path>
        </g>
        <ellipse cx="56.37" cy="302.3" rx="25.63" ry="14.93" style="fill: #f49126"></ellipse>
        <path d="M77.75,384c-13.86,0-25.12-6.41-25.59-14.41,0,.18,0,.35,0,.52,0,8.25,11.47,14.93,25.63,14.93s25.63-6.68,25.63-14.93c0-.17,0-.34,0-.52C102.86,377.58,91.6,384,77.75,384Z" transform="translate(-21.38 -67.16)" style="fill: #b66b29"></path>
        <path d="M96.9,369.46c0,6.17-8.57,11.16-19.15,11.16s-19.16-5-19.16-11.16,8.57-11.15,19.16-11.15S96.9,363.3,96.9,369.46Z" transform="translate(-21.38 -67.16)" style="fill: #e58627"></path>
        <path d="M77.75,359.5c10.23,0,18.57,4.68,19.1,10.56a5.82,5.82,0,0,0,.05-.6c0-6.16-8.57-11.15-19.15-11.15s-19.16,5-19.16,11.15a5.82,5.82,0,0,0,0,.6C59.18,364.18,67.51,359.5,77.75,359.5Z" transform="translate(-21.38 -67.16)" style="fill: #b66b29"></path>
      </g>
      <ellipse cx="185.87" cy="411.21" rx="17.62" ry="47.92" transform="translate(-277.25 436.27) rotate(-77.47)" style="fill: #1a2a42;opacity: 0.05"></ellipse>
      <g>
        <path d="M284,390.49H232.69v7.23h0c0,.07,0,.14,0,.2,0,8.25,11.48,14.93,25.63,14.93S284,406.17,284,397.92c0-.06,0-.13,0-.2h0Z" transform="translate(-21.38 -67.16)" style="fill: #f49126"></path>
        <g>
          <path d="M266.18,412.13l.71-.15V393h-.71Z" transform="translate(-21.38 -67.16)" style="fill: #b66b29"></path>
          <path d="M272.62,410.31c.24-.09.47-.2.71-.3V393h-.71Z" transform="translate(-21.38 -67.16)" style="fill: #b66b29"></path>
          <path d="M279.06,406.68c.24-.2.49-.39.71-.6V393h-.71Z" transform="translate(-21.38 -67.16)" style="fill: #b66b29"></path>
          <path d="M259.74,412.81l.71,0V393h-.71Z" transform="translate(-21.38 -67.16)" style="fill: #b66b29"></path>
          <path d="M253.3,412.56c.23,0,.48,0,.71.06V393h-.71Z" transform="translate(-21.38 -67.16)" style="fill: #b66b29"></path>
          <path d="M246.86,411.26l.72.2V393h-.72Z" transform="translate(-21.38 -67.16)" style="fill: #b66b29"></path>
          <path d="M234,402.57a11.45,11.45,0,0,0,.72,1.14V393H234Z" transform="translate(-21.38 -67.16)" style="fill: #b66b29"></path>
          <path d="M240.42,408.59l.72.38V393h-.72Z" transform="translate(-21.38 -67.16)" style="fill: #b66b29"></path>
        </g>
        <ellipse cx="236.95" cy="323.43" rx="25.63" ry="14.93" style="fill: #f49126"></ellipse>
        <path d="M258.32,405.12c-13.85,0-25.11-6.41-25.58-14.41,0,.17,0,.34,0,.52,0,8.24,11.47,14.92,25.62,14.92S284,399.47,284,391.23c0-.18,0-.35,0-.52C283.44,398.71,272.18,405.12,258.32,405.12Z" transform="translate(-21.38 -67.16)" style="fill: #b66b29"></path>
        <path d="M277.48,390.59c0,6.16-8.57,11.16-19.16,11.16s-19.15-5-19.15-11.16,8.57-11.16,19.15-11.16S277.48,384.43,277.48,390.59Z" transform="translate(-21.38 -67.16)" style="fill: #e58627"></path>
        <path d="M258.32,380.63c10.24,0,18.58,4.68,19.11,10.56,0-.2.05-.4.05-.6,0-6.16-8.57-11.16-19.16-11.16s-19.15,5-19.15,11.16c0,.2,0,.4.05.6C239.75,385.31,248.09,380.63,258.32,380.63Z" transform="translate(-21.38 -67.16)" style="fill: #b66b29"></path>
      </g>
      <g>
        <g>
          <path d="M250.88,221.94H192.21v8.28h0c0,.08,0,.16,0,.23,0,9.44,13.14,17.09,29.34,17.09s29.33-7.65,29.33-17.09c0-.07,0-.15,0-.23h0Z" transform="translate(-21.38 -67.16)" style="fill: #f49126"></path>
          <g>
            <path d="M230.53,246.71l.82-.17V224.85h-.82Z" transform="translate(-21.38 -67.16)" style="fill: #b66b29"></path>
            <path d="M237.9,244.63c.29-.11.55-.23.83-.35V224.85h-.83Z" transform="translate(-21.38 -67.16)" style="fill: #b66b29"></path>
            <path d="M245.27,240.47l.83-.68V224.85h-.83Z" transform="translate(-21.38 -67.16)" style="fill: #b66b29"></path>
            <path d="M223.16,247.49c.28,0,.55,0,.82,0V224.85h-.82Z" transform="translate(-21.38 -67.16)" style="fill: #b66b29"></path>
            <path d="M215.79,247.2l.82.08V224.85h-.82Z" transform="translate(-21.38 -67.16)" style="fill: #b66b29"></path>
            <path d="M208.42,245.71l.82.24v-21.1h-.82Z" transform="translate(-21.38 -67.16)" style="fill: #b66b29"></path>
            <path d="M193.68,235.77c.25.44.52.88.82,1.31V224.85h-.82Z" transform="translate(-21.38 -67.16)" style="fill: #b66b29"></path>
            <path d="M201.05,242.66l.82.44V224.85h-.82Z" transform="translate(-21.38 -67.16)" style="fill: #b66b29"></path>
          </g>
          <ellipse cx="200.17" cy="154.9" rx="29.33" ry="17.08" style="fill: #f49126"></ellipse>
          <path d="M221.55,238.69c-15.86,0-28.74-7.34-29.28-16.49a5.9,5.9,0,0,0-.06.59c0,9.44,13.14,17.08,29.34,17.08s29.33-7.64,29.33-17.08c0-.2,0-.39,0-.59C250.29,231.35,237.4,238.69,221.55,238.69Z" transform="translate(-21.38 -67.16)" style="fill: #b66b29"></path>
          <path d="M243.47,222.06c0,7.05-9.81,12.77-21.92,12.77s-21.93-5.72-21.93-12.77,9.82-12.77,21.93-12.77S243.47,215,243.47,222.06Z" transform="translate(-21.38 -67.16)" style="fill: #e58627"></path>
          <path d="M221.55,210.66c11.71,0,21.25,5.35,21.87,12.09,0-.23.05-.46.05-.69,0-7.05-9.81-12.77-21.92-12.77s-21.93,5.72-21.93,12.77c0,.23,0,.46.06.69C200.29,216,209.83,210.66,221.55,210.66Z" transform="translate(-21.38 -67.16)" style="fill: #b66b29"></path>
        </g>
        <g>
          <path d="M260.86,198.59H202.19v8.27h0c0,.08,0,.16,0,.24,0,9.43,13.14,17.08,29.34,17.08s29.33-7.65,29.33-17.08c0-.08,0-.16,0-.24h0Z" transform="translate(-21.38 -67.16)" style="fill: #f49126"></path>
          <g>
            <path d="M240.51,223.36l.82-.18V201.49h-.82Z" transform="translate(-21.38 -67.16)" style="fill: #b66b29"></path>
            <path d="M247.88,221.28c.28-.11.55-.24.82-.36V201.49h-.82Z" transform="translate(-21.38 -67.16)" style="fill: #b66b29"></path>
            <path d="M255.25,217.11c.28-.22.56-.44.82-.68V201.49h-.82Z" transform="translate(-21.38 -67.16)" style="fill: #b66b29"></path>
            <path d="M233.14,224.13l.82,0V201.49h-.82Z" transform="translate(-21.38 -67.16)" style="fill: #b66b29"></path>
            <path d="M225.77,223.85l.82.07V201.49h-.82Z" transform="translate(-21.38 -67.16)" style="fill: #b66b29"></path>
            <path d="M218.4,222.36l.82.23v-21.1h-.82Z" transform="translate(-21.38 -67.16)" style="fill: #b66b29"></path>
            <path d="M203.66,212.42a14.88,14.88,0,0,0,.82,1.3V201.49h-.82Z" transform="translate(-21.38 -67.16)" style="fill: #b66b29"></path>
            <path d="M211,219.31l.82.43V201.49H211Z" transform="translate(-21.38 -67.16)" style="fill: #b66b29"></path>
          </g>
          <ellipse cx="210.15" cy="131.54" rx="29.33" ry="17.08" style="fill: #f49126"></ellipse>
          <path d="M231.53,215.33c-15.86,0-28.74-7.33-29.29-16.49,0,.2-.05.39-.05.6,0,9.43,13.14,17.08,29.34,17.08s29.33-7.65,29.33-17.08c0-.21,0-.4-.05-.6C260.27,208,247.38,215.33,231.53,215.33Z" transform="translate(-21.38 -67.16)" style="fill: #b66b29"></path>
          <path d="M253.45,198.7c0,7.06-9.81,12.77-21.92,12.77s-21.93-5.71-21.93-12.77,9.82-12.76,21.93-12.76S253.45,191.65,253.45,198.7Z" transform="translate(-21.38 -67.16)" style="fill: #e58627"></path>
          <path d="M231.53,187.31c11.71,0,21.25,5.35,21.86,12.08a5.2,5.2,0,0,0,.06-.69c0-7-9.81-12.76-21.92-12.76s-21.93,5.71-21.93,12.76c0,.24,0,.46.06.69C210.27,192.66,219.81,187.31,231.53,187.31Z" transform="translate(-21.38 -67.16)" style="fill: #b66b29"></path>
        </g>
        <g>
          <path d="M241.33,182.41H182.67v8.27h0c0,.08,0,.16,0,.24,0,9.43,13.13,17.08,29.33,17.08s29.33-7.65,29.33-17.08a1.93,1.93,0,0,0,0-.24h0Z" transform="translate(-21.38 -67.16)" style="fill: #f49126"></path>
          <g>
            <path d="M221,207.18l.82-.18V185.31H221Z" transform="translate(-21.38 -67.16)" style="fill: #b66b29"></path>
            <path d="M228.36,205.1c.28-.11.54-.24.82-.36V185.31h-.82Z" transform="translate(-21.38 -67.16)" style="fill: #b66b29"></path>
            <path d="M235.73,200.93c.28-.22.56-.44.82-.68V185.31h-.82Z" transform="translate(-21.38 -67.16)" style="fill: #b66b29"></path>
            <path d="M213.62,208l.82,0V185.31h-.82Z" transform="translate(-21.38 -67.16)" style="fill: #b66b29"></path>
            <path d="M206.25,207.67l.82.07V185.31h-.82Z" transform="translate(-21.38 -67.16)" style="fill: #b66b29"></path>
            <path d="M198.88,206.18l.82.23v-21.1h-.82Z" transform="translate(-21.38 -67.16)" style="fill: #b66b29"></path>
            <path d="M184.14,196.24a11.28,11.28,0,0,0,.82,1.3V185.31h-.82Z" transform="translate(-21.38 -67.16)" style="fill: #b66b29"></path>
            <path d="M191.51,203.13c.26.15.54.29.82.43V185.31h-.82Z" transform="translate(-21.38 -67.16)" style="fill: #b66b29"></path>
          </g>
          <ellipse cx="190.62" cy="115.36" rx="29.33" ry="17.08" style="fill: #f49126"></ellipse>
          <path d="M212,199.15c-15.86,0-28.74-7.33-29.28-16.49,0,.2-.05.39-.05.59,0,9.44,13.13,17.09,29.33,17.09s29.33-7.65,29.33-17.09c0-.2,0-.39-.05-.59C240.74,191.82,227.86,199.15,212,199.15Z" transform="translate(-21.38 -67.16)" style="fill: #b66b29"></path>
          <path d="M233.93,182.52c0,7.06-9.82,12.77-21.93,12.77s-21.93-5.71-21.93-12.77,9.82-12.76,21.93-12.76S233.93,175.47,233.93,182.52Z" transform="translate(-21.38 -67.16)" style="fill: #e58627"></path>
          <path d="M212,171.13c11.71,0,21.25,5.35,21.87,12.08,0-.23.06-.45.06-.69,0-7.05-9.82-12.76-21.93-12.76s-21.93,5.71-21.93,12.76c0,.24,0,.46.06.69C190.75,176.48,200.29,171.13,212,171.13Z" transform="translate(-21.38 -67.16)" style="fill: #b66b29"></path>
        </g>
        <g>
          <path d="M216.16,248.86s7.55,2.17,10.34,1.75,11-4.43,10.78-5.83-2.43-2.5-4.85-2.13-5.85,2.19-6.71,2.18c-2.35,0-5.93-3.37-10.1-2S216.16,248.86,216.16,248.86Z" transform="translate(-21.38 -67.16)" style="fill: #a0694b"></path>
          <path d="M209.8,394.83c-.13-.08-.22-.18-.36-.25-3.27-1.89-8-1.34-11.28.55L186.29,402h-2.43v3.28h0c-.07,1.29.73,2.59,2.43,3.57a13.13,13.13,0,0,0,11.87,0l11.28-7.4a4.29,4.29,0,0,0,2.42-3.17h0l-.45-3.26Z" transform="translate(-21.38 -67.16)"></path>
          <path d="M209.44,398.26l-11.28,7.4a13.13,13.13,0,0,1-11.87,0h0a5,5,0,0,1,0-8.63s8.35-4.74,12.54-6c5.48-1.66,8.63-.6,10.75.65A3.76,3.76,0,0,1,209.44,398.26Z" transform="translate(-21.38 -67.16)" style="fill: #1a2a42"></path>
          <g>
            <path d="M174.11,385.37c-.13-.08-.22-.17-.36-.25-3.28-1.89-8-1.34-11.28.55l-11.87,6.85h-2.44v3.28h0c-.07,1.29.73,2.59,2.43,3.57a13.13,13.13,0,0,0,11.87,0l11.28-7.4a4.29,4.29,0,0,0,2.42-3.17h0l-.45-3.26Z" transform="translate(-21.38 -67.16)"></path>
            <path d="M173.75,388.8l-11.28,7.4a13.13,13.13,0,0,1-11.87,0h0a5,5,0,0,1,0-8.63s8.35-4.73,12.53-6c5.49-1.66,8.64-.59,10.76.65A3.77,3.77,0,0,1,173.75,388.8Z" transform="translate(-21.38 -67.16)" style="fill: #1a2a42"></path>
          </g>
          <path d="M148.15,391.43c0,2.23,3.86,3.48,6,4,3.87.78,10.92-.77,11.9-4.61,1-3.47,2.1-8.34,2.57-10,2.28-10.07,5.7-34.81,7.94-56.57.13-1.05.23-2.1.33-3.15.28.71.51,1.42.75,2.2,6.78,21.52,6.64,67.59,7.05,73.38,0,.34,0,.61,0,.81a3.6,3.6,0,0,0,.1.85c1,3.78,8.41,3.72,9.93,3.42a10,10,0,0,0,4.38-1.18,5,5,0,0,0,2.27-2.48,710.9,710.9,0,0,0,4.17-87.61,306.49,306.49,0,0,0-1.94-31c-.09-.75-.16-1.12-.16-1.12-8,.78-14.88,1.66-20.17,3.32-.41-3.05-1.76.54-1.76.54l-30-3.25-.68-.07v.1c0,.24-.06.78-.1,1.63-.07,1.19-.13,2.88-.2,5.19-.07,3.89-.14,9.49,0,16.47C150.93,313.48,156.76,341.1,148.15,391.43Z" transform="translate(-21.38 -67.16)" style="fill: #e2e2e2"></path>
          <path d="M274.19,186.28a3.44,3.44,0,0,1,.28.44C274.36,186.59,274.3,186.4,274.19,186.28Z" transform="translate(-21.38 -67.16)" style="fill: url(#linear-gradient)"></path>
          <path d="M194.38,305.75a29,29,0,0,0,5-2.27c6-3.45,10-8,9.62-12.54,0,0-.54-11.9-1.15-26.06h-.1C190.79,263.69,192.55,292,194.38,305.75Z" transform="translate(-21.38 -67.16)" style="fill: #004ea4"></path>
          <path d="M160.18,192.85c2.27,7.09,8.13,9.73,13.52,11.36a42.53,42.53,0,0,0,17.8,1,4.7,4.7,0,0,0,.61-.14L190,207.83l-1.22,4.07v14.68l17,21.08s.58.44,1.5,1.22c-.21-6.14-.41-12.07-.51-17,0-10.57-2.27-25.31-4.31-29.79A7.69,7.69,0,0,0,201,200c-.71-.71-1.35-1.35-2-1.93-8-7.66-9.19-6.54-9.19-6.54l-17.72-6.37-.89-.31a8.87,8.87,0,0,0-1.11.1h0c-.4.07-.94.17-1.56.31s-1.35.34-2.16.57v-1.25a13.39,13.39,0,0,0-1.7-.2,6.9,6.9,0,0,1,.78.2C161.67,186.28,159.06,189.3,160.18,192.85Z" transform="translate(-21.38 -67.16)" style="fill: #004ea4"></path>
          <path d="M144.25,208.62a48.61,48.61,0,0,1,1.39-8.61A35.71,35.71,0,0,0,144.25,208.62Z" transform="translate(-21.38 -67.16)" style="fill: #d6d6d6"></path>
          <path d="M175.48,204.52c14.91,2.4,24.68-5.34,24.68-5.34-.41-.41-.8-.8-1.17-1.14a31.52,31.52,0,0,1-23.23,5.19c-14.07-2.24-15.39-8.17-15-12.24.33-3.52,4.69-6,5.61-6.44l-1.57-.22s-5,2.86-5.37,7.1S160.43,202.11,175.48,204.52Z" transform="translate(-21.38 -67.16)" style="fill: #0063cf"></path>
          <path d="M192.43,139.43c-10.78,2-16.31-1-20.46,4.55-3.69,4.85,2.36,18.33-2.25,25-3.29,4.84-14.64-.29-17.46-9.8-2.42-11.93-.25-23.8,3.67-28.8,8.82-11.27,23.94-13.05,35.47-9.94,5.64,1.56,9.68,3.87,12.33,6.4C205.23,131.59,203.27,137.47,192.43,139.43Z" transform="translate(-21.38 -67.16)" style="fill: #302b2d"></path>
          <path d="M192.94,140.55c-10.69,2.07-16.19-1-20.31,4.81-3.66,5.11,2.35,19.35-2.23,26.41-3.26,5.11-14.53-.31-17.33-10.35-2.41-12.59-.25-25.11,3.64-30.39,8.75-11.9,23.76-13.78,35.2-10.49,5.61,1.64,9.61,4.07,12.25,6.75C205.64,132.28,203.7,138.49,192.94,140.55Z" transform="translate(-21.38 -67.16)" style="fill: #302b2d"></path>
          <path d="M199.7,173.55a9.2,9.2,0,0,1-1.16,2c-5.13,6.63-15,7-21.09,5.31-2.54-.7-2.94-7.67-2.6-15.63.52-11.29,2.6-24.61,2.6-24.61l25.19,1.73S203.56,164.79,199.7,173.55Z" transform="translate(-21.38 -67.16)" style="fill: #a0694b"></path>
          <path d="M166.72,185.37a5.4,5.4,0,0,0-1,7.2c2.68,4.24,9.18,6.22,15.25,5.23s12.82-3.8,13.5-3.8-4.65-4.19-4.65-4.19Z" transform="translate(-21.38 -67.16)" style="fill: #fff"></path>
          <path d="M180.55,168.42l-.07,0-5.64-3.13a54.88,54.88,0,0,0,.33,11.06h0l-8.8-2.84v15a6.39,6.39,0,0,0,3.46,5.34c4.71,2.44,11.88,2.37,16.62,0,4-2,3.42-4.68,3.42-4.68V181h0a19.08,19.08,0,0,0,3.61-1.32,14.4,14.4,0,0,0,5.12-4.1,9.94,9.94,0,0,0,1.13-2C188.74,179.74,180.55,168.42,180.55,168.42Z" transform="translate(-21.38 -67.16)" style="fill: #a0694b"></path>
          <path d="M207.71,134.64c-.17,4.5-6.86,9-10.32,12.46-5,5,.64,13.07-2.82,13.62s-2.93-10.57-9.23-6.34c-3.44,2.32-5.65,17.5-5.65,21.31s-11.84,8.39-17.11,3.11a38,38,0,0,1-10.32-19.6c2.82,9.51,14.17,14.64,17.46,9.8,4.61-6.69-1.44-20.17,2.25-25,4.15-5.53,9.68-2.59,20.46-4.55s12.8-7.84,11.3-12.57h.06C206.5,129.51,207.77,132.34,207.71,134.64Z" transform="translate(-21.38 -67.16)" style="fill: #231f20"></path>
          <path d="M191.26,234.24c3.7,6.06,17.08,29.42,25.32,29.35s9.49-8.27,7.93-14.34c-.14-.47-.27-.95-.44-1.39-2.14-6.1-13.9-43.85-22.2-46-4-1.05-7.73.81-10.51,4.07a21.12,21.12,0,0,0-3.29,5.49C185.5,217.5,187.53,228.14,191.26,234.24Z" transform="translate(-21.38 -67.16)" style="fill: #004ea4"></path>
          <path d="M191.13,338.09v63.65c3.34.42,9,0,10.3-3.7,0-.33.56-6,.78-7.76a688.66,688.66,0,0,0,3.39-79.85C203.22,310.87,191.13,314.4,191.13,338.09Z" transform="translate(-21.38 -67.16)" style="opacity: 0.13"></path>
          <path d="M161.74,394.64c2.1-.71,3.86-2,4.34-3.85,0,0,.71-2.37,1.76-6.74.07-.31.14-.58.2-.88.21-.79.38-1.56.61-2.41,2.28-10.07,5.7-34.81,7.94-56.57-3.7,3.49-7.43,9.86-8.85,21.42C165.81,361.47,163.37,381.43,161.74,394.64Z" transform="translate(-21.38 -67.16)" style="opacity: 0.13"></path>
          <path d="M191.26,234.24c3.7,6.06,17.08,29.42,25.32,29.35s9.49-8.27,7.93-14.34h0c-7.22,7.87-17.28-3.73-27.25-17.93s-5.83-25.38-5.83-25.38h-.07a21.12,21.12,0,0,0-3.29,5.49C185.5,217.5,187.53,228.14,191.26,234.24Z" transform="translate(-21.38 -67.16)" style="fill: #0063cf"></path>
          <path d="M144.89,244.24c.14,2,3.7,6.1,4.45,5.93,0,.54-1,36.23-1.19,38.06-.48,4.81,4.34,11.59,10.68,15.25a36,36,0,0,0,9,3.49l1.52-15.66,1.57,16.31c9.16,1.4,17,.49,23.45-1.87-1.83-13.73-3.59-42.06,13.32-40.87h.1c-.17-5.19-.41-10.68-.57-16-.92-.78-1.5-1.22-1.5-1.22l-17-21.08V211.9l1.22-4.07,2.14-2.71a4.7,4.7,0,0,1-.61.14,42.53,42.53,0,0,1-17.8-1c-5.39-1.63-11.25-4.27-13.52-11.36-1.12-3.55,1.49-6.57,5.22-8.3a6.9,6.9,0,0,0-.78-.2,13.87,13.87,0,0,0-8.14,1.8c-.57.33-1.18.71-1.72,1.08-8.3,5.64-10.64,14.35-10.64,25.15C144.12,212.38,143.74,227.7,144.89,244.24Z" transform="translate(-21.38 -67.16)" style="fill: #0063cf"></path>
          <path d="M146,198.82a21.75,21.75,0,0,1,8.78-11.59c.54-.37,1.15-.75,1.72-1.08a13.87,13.87,0,0,1,8.14-1.8C154.76,181.77,148.76,189.3,146,198.82Z" transform="translate(-21.38 -67.16)" style="fill: #c7c7c7"></path>
        </g>
      </g>
      <g>
        <g>
          <ellipse cx="431.59" cy="330.79" rx="86.55" ry="25.66" transform="translate(-85.24 487.72) rotate(-61.8)" style="fill: #0063cf"></ellipse>
          <line x1="451.22" y1="187.14" x2="380.53" y2="319" style="fill: none;stroke: #fff;stroke-linecap: round;stroke-miterlimit: 10;stroke-width: 2px"></line>
          <line x1="454.11" y1="222.75" x2="423.73" y2="238.42" style="fill: none;stroke: #fff;stroke-linecap: round;stroke-miterlimit: 10;stroke-width: 2px"></line>
          <line x1="442.99" y1="254.81" x2="408" y2="267.75" style="fill: none;stroke: #fff;stroke-linecap: round;stroke-miterlimit: 10;stroke-width: 2px"></line>
          <line x1="421.32" y1="295.33" x2="394.08" y2="293.72" style="fill: none;stroke: #fff;stroke-linecap: round;stroke-miterlimit: 10;stroke-width: 2px"></line>
          <line x1="411.23" y1="214.79" x2="415.55" y2="253.8" style="fill: none;stroke: #fff;stroke-linecap: round;stroke-miterlimit: 10;stroke-width: 2px"></line>
          <line x1="389.05" y1="248.8" x2="399.83" y2="283.13" style="fill: none;stroke: #fff;stroke-linecap: round;stroke-miterlimit: 10;stroke-width: 2px"></line>
          <line x1="370.89" y1="289.16" x2="385.91" y2="309.1" style="fill: none;stroke: #fff;stroke-linecap: round;stroke-miterlimit: 10;stroke-width: 2px"></line>
        </g>
        <g>
          <ellipse cx="379.53" cy="339.41" rx="20.52" ry="69.23" transform="translate(-93.92 37.99) rotate(-14.41)" style="fill: #1a2a42"></ellipse>
          <line x1="340.87" y1="205.02" x2="370.66" y2="320.92" style="fill: none;stroke: #fff;stroke-linecap: round;stroke-miterlimit: 10;stroke-width: 2px"></line>
          <line x1="361.85" y1="224.42" x2="352.45" y2="250.1" style="fill: none;stroke: #fff;stroke-linecap: round;stroke-miterlimit: 10;stroke-width: 2px"></line>
          <line x1="372.67" y1="249.31" x2="359.08" y2="275.88" style="fill: none;stroke: #fff;stroke-linecap: round;stroke-miterlimit: 10;stroke-width: 2px"></line>
          <line x1="381.85" y1="284.9" x2="364.95" y2="298.7" style="fill: none;stroke: #fff;stroke-linecap: round;stroke-miterlimit: 10;stroke-width: 2px"></line>
          <line x1="332.3" y1="242.95" x2="355.97" y2="263.58" style="fill: none;stroke: #fff;stroke-linecap: round;stroke-miterlimit: 10;stroke-width: 2px"></line>
          <line x1="337.66" y1="274.98" x2="362.59" y2="289.35" style="fill: none;stroke: #fff;stroke-linecap: round;stroke-miterlimit: 10;stroke-width: 2px"></line>
          <line x1="348.83" y1="308.58" x2="368.46" y2="312.18" style="fill: none;stroke: #fff;stroke-linecap: round;stroke-miterlimit: 10;stroke-width: 2px"></line>
        </g>
      </g>
      <circle cx="67.62" cy="73.15" r="17.07" style="fill: #0063cf"></circle>
      <circle cx="438.92" cy="44.98" r="33.1" style="fill: #1a2a42"></circle>
    </g>
  </g>
</svg>
