<?xml version="1.0" encoding="UTF-8"?>
<!-- Generator: Adobe Illustrator 25.0.1, SVG Export Plug-In . SVG Version: 6.00 Build 0)  -->
<svg xmlns="http://www.w3.org/2000/svg" xmlns:xlink="http://www.w3.org/1999/xlink" version="1.1" id="Layer_1" x="0px" y="0px" viewBox="0 0 554.5 500.5" style="enable-background:new 0 0 554.5 500.5;" xml:space="preserve">
<style type="text/css">
	.st0{opacity:3.000000e-02;fill:#004EA4;enable-background:new    ;}
	.st1{fill:#E58627;}
	.st2{fill:#C67124;}
	.st3{fill:#FC8F2D;}
	.st4{fill:#0099E8;}
	.st5{fill:#0063CF;}
	.st6{fill:none;stroke:#FFFFFF;stroke-width:0.5;stroke-linecap:round;stroke-miterlimit:10;}
	.st7{fill:#1A2A42;}
	.st8{fill:#C4C4C4;}
	.st9{fill:#EAEAEA;}
	.st10{fill:#FFFFFF;}
	.st11{opacity:5.000000e-02;fill:#1A2A42;enable-background:new    ;}
	.st12{fill:#474747;}
	.st13{fill:#707070;}
	.st14{fill:#E2E2E2;}
	.st15{fill:#D9E6F4;}
	.st16{fill:#494949;}
	.st17{fill:#A0694B;}
	.st18{fill:#122E56;}
	.st19{fill:url(#SVGID_1_);}
	.st20{fill:#AABECC;}
	.st21{fill:#D6D6D6;}
	.st22{fill:#C3D9ED;}
	.st23{fill:#302B2D;}
	.st24{fill:#231F20;}
	.st25{opacity:0.13;enable-background:new    ;}
	.st26{fill:#C7C7C7;}
	.st27{fill:url(#SVGID_2_);}
	.st28{fill:#0057A5;}
	.st29{fill:#875641;}
</style>
<ellipse class="st0" cx="277" cy="344.6" rx="277.3" ry="157.4"></ellipse>
<g>
	<polygon class="st1" points="324,257.1 301.5,271.7 269.8,260.3 269.8,140.4 324,137.2  "></polygon>
	<polygon class="st2" points="324,257.1 301.5,271.7 301.8,140.4 324,137.2  "></polygon>
	<polygon class="st3" points="324,137.2 301.5,151.8 269.8,140.4 292.3,124.8  "></polygon>
</g>
<circle cx="365.4" cy="100.6" r="17.1"></circle>
<circle class="st4" cx="157" cy="39" r="39"></circle>
<g>
	<polygon class="st1" points="289.7,279.6 267.3,294.2 235.6,282.8 235.6,52.9 289.7,49.7  "></polygon>
	<polygon class="st2" points="289.7,279.6 267.3,294.2 267.6,52.9 289.7,49.7  "></polygon>
	<polygon class="st3" points="289.7,49.7 267.3,64.3 235.6,52.9 258.1,37.3  "></polygon>
</g>
<g>
	<g>
		
			<ellipse transform="matrix(0.8219 -0.5696 0.5696 0.8219 -110.2419 206.5983)" class="st5" cx="275.3" cy="279.6" rx="28.7" ry="8.5"></ellipse>
		<line class="st6" x1="298.9" y1="263.3" x2="258.2" y2="291.5"></line>
		<line class="st6" x1="294.4" y1="274.2" x2="283.1" y2="274.2"></line>
		<line class="st6" x1="286.3" y1="282" x2="274" y2="280.5"></line>
		<line class="st6" x1="273.8" y1="290.6" x2="266" y2="286.1"></line>
		<line class="st6" x1="283" y1="265.4" x2="278.4" y2="277.5"></line>
		<line class="st6" x1="271.3" y1="272.1" x2="269.3" y2="283.8"></line>
		<line class="st6" x1="259.9" y1="281.2" x2="261.3" y2="289.4"></line>
	</g>
	<g>
		
			<ellipse transform="matrix(0.2193 -0.9756 0.9756 0.2193 -65.6997 466.4978)" class="st7" cx="258.7" cy="274.3" rx="22.9" ry="6.8"></ellipse>
		<line class="st6" x1="263.7" y1="251.9" x2="255" y2="290.6"></line>
		<line class="st6" x1="267" y1="260.8" x2="260.3" y2="266.9"></line>
		<line class="st6" x1="266.4" y1="269.7" x2="258.4" y2="275.5"></line>
		<line class="st6" x1="263.7" y1="281.6" x2="256.7" y2="283.1"></line>
		<line class="st6" x1="255.5" y1="261.8" x2="259.3" y2="271.4"></line>
		<line class="st6" x1="252.2" y1="272" x2="257.4" y2="280"></line>
		<line class="st6" x1="250.4" y1="283.6" x2="255.7" y2="287.6"></line>
	</g>
</g>
<g>
	<polygon class="st1" points="256.5,303 234.1,317.5 202.4,306.2 202.4,246.3 256.5,243  "></polygon>
	<polygon class="st2" points="256.5,303 234.1,317.5 234.4,246.3 256.5,243  "></polygon>
	<polygon class="st3" points="256.5,243 234.1,257.6 202.4,246.3 224.9,230.7  "></polygon>
</g>
<g>
	<polygon class="st8" points="292.1,437.1 269.7,451.8 238,440.4 238,380.5 292.1,377.2  "></polygon>
	<polygon class="st9" points="292.1,437.1 269.7,451.8 270,380.5 292.1,377.2  "></polygon>
	<polygon class="st10" points="292.1,377.2 269.7,391.9 238,380.5 260.5,364.9  "></polygon>
</g>
<g>
	
		<ellipse transform="matrix(0.217 -0.9762 0.9762 0.217 -299.1688 400.4382)" class="st11" cx="100" cy="386.7" rx="21.4" ry="58.3"></ellipse>
	<g>
		<g id="_11">
			<path class="st12" d="M217.1,223.9l-0.1-44.1c0-1.8-0.9-3.5-2.4-4.5L149.9,138c-0.4-0.3-1-0.3-1.4-0.2l0,0l-0.1,0.1     c-0.1,0-0.1,0.1-0.1,0.1l-3,1.9l2.4,3l0,40.9c0,1.8,0.9,3.5,2.4,4.5l59.9,34.5l3.6,4.6l2.7-1.7l0,0     C216.9,225.4,217.2,224.6,217.1,223.9z"></path>
			<path class="st12" d="M212.9,231.9L212.9,231.9v-3.4l-7.5-1.2l-57.9-33.5c-1.6-0.7-3.5-0.7-5.1,0.2l-33.2,19.2l-0.4-0.1l-6,0.5     l0.1,4.1l0,0c0,0.6,0.4,1.1,0.9,1.3l64.7,37.3c1.6,0.7,3.5,0.7,5.1-0.2l38.2-22C212.9,233.4,213.3,232.6,212.9,231.9z"></path>
			<g>
				<path class="st13" d="M168.4,252.5l-64.7-37.4c-1.3-0.8-1.1-2.1,0.4-2.9l38.2-22c1.6-0.9,3.5-0.9,5.1-0.2l64.7,37.3      c1.3,0.8,1.1,2.1-0.4,3l-38.2,22C171.9,253.1,170.1,253.2,168.4,252.5z"></path>
				<path class="st14" d="M185.9,240.2l-61-35.2c-0.7-0.4-0.6-1.1,0.2-1.6l18-10.4c0.9-0.5,1.9-0.5,2.8-0.1l61,35.2      c0.7,0.4,0.6,1.1-0.2,1.6l-18,10.4C187.8,240.6,186.8,240.6,185.9,240.2z"></path>
				<path class="st14" d="M148.7,236.2l-16.8-9.7c-0.7-0.4-0.6-1.1,0.2-1.6l9.8-5.6c0.9-0.5,1.9-0.5,2.8-0.1l16.8,9.7      c0.7,0.4,0.6,1.1-0.2,1.6l-9.8,5.6C150.6,236.6,149.6,236.6,148.7,236.2z"></path>
				<path class="st10" d="M148.7,236.2l-16.8-9.7c-0.7-0.4-0.6-1.1,0.2-1.6l1.2-0.7c0.9-0.5,1.9-0.5,2.8-0.1l16.8,9.7      c0.7,0.4,0.6,1.1-0.2,1.6l-1.2,0.7C150.6,236.6,149.6,236.6,148.7,236.2z"></path>
				<path class="st10" d="M144.4,197.8l-2.3-1.3c-0.4-0.3-0.4-0.7,0.1-1l2.1-1.2c0.5-0.3,1.1-0.3,1.6-0.1l2.3,1.3      c0.4,0.3,0.4,0.7-0.1,0.9l-2,1.2C145.5,198.1,144.9,198.1,144.4,197.8z"></path>
				<path class="st10" d="M149,200.6l-2.3-1.3c-0.4-0.2-0.4-0.7,0.1-1l2.1-1.2c0.5-0.3,1.1-0.3,1.6-0.1l2.3,1.4      c0.4,0.2,0.4,0.7-0.1,0.9l-2.1,1.2C150.2,200.8,149.6,200.8,149,200.6z"></path>
				<path class="st10" d="M153.7,203.3l-2.3-1.3c-0.4-0.2-0.4-0.7,0.1-1l2.1-1.2c0.5-0.3,1.1-0.3,1.6-0.1l2.3,1.3      c0.4,0.3,0.4,0.7-0.1,0.9l-2.1,1.2C154.9,203.4,154.3,203.5,153.7,203.3z"></path>
				<path class="st10" d="M158.4,206l-2.3-1.3c-0.4-0.2-0.4-0.7,0.1-1l2.1-1.2c0.5-0.3,1.1-0.3,1.6-0.1l2.3,1.4      c0.4,0.2,0.4,0.7-0.1,0.9l-2.1,1.2C159.6,206.1,159,206.2,158.4,206z"></path>
				<path class="st10" d="M163.1,208.7l-2.3-1.3c-0.4-0.2-0.4-0.7,0.1-0.9l2.1-1.2c0.5-0.3,1.1-0.3,1.6-0.1l2.3,1.4      c0.4,0.2,0.4,0.7-0.1,0.9l-2.1,1.2C164.3,208.9,163.7,208.9,163.1,208.7z"></path>
				<path class="st10" d="M167.8,211.4l-2.3-1.3c-0.4-0.2-0.4-0.7,0.1-1l2.1-1.2c0.5-0.3,1.1-0.3,1.6-0.1l2.3,1.4      c0.4,0.2,0.4,0.7-0.1,0.9l-2.1,1.2C168.9,211.6,168.3,211.6,167.8,211.4z"></path>
				<path class="st10" d="M172.5,214.1l-2.3-1.4c-0.4-0.2-0.4-0.7,0.1-0.9l2.1-1.2c0.5-0.3,1.1-0.3,1.7,0l2.3,1.4      c0.4,0.2,0.4,0.7-0.1,0.9l-2.1,1.2C173.7,214.3,173,214.4,172.5,214.1z"></path>
				<path class="st10" d="M177.2,216.8l-2.3-1.4c-0.4-0.2-0.4-0.7,0.1-0.9l2.1-1.2c0.5-0.3,1.1-0.3,1.6-0.1l2.3,1.3      c0.4,0.2,0.4,0.7-0.1,0.9l-2.1,1.2C178.4,217,177.7,217,177.2,216.8z"></path>
				<path class="st10" d="M181.9,219.5l-2.3-1.4c-0.4-0.2-0.4-0.7,0.1-0.9l2.1-1.2c0.5-0.3,1.1-0.3,1.6-0.1l2.3,1.3      c0.4,0.2,0.4,0.7-0.1,0.9l-2.1,1.2C183,219.7,182.4,219.7,181.9,219.5z"></path>
				<path class="st10" d="M186.6,222.2l-2.3-1.4c-0.4-0.2-0.4-0.7,0.1-0.9l2.1-1.2c0.5-0.3,1.1-0.3,1.6-0.1l2.3,1.3      c0.4,0.2,0.4,0.7-0.1,1l-2.1,1.2C187.7,222.4,187.1,222.4,186.6,222.2z"></path>
				<path class="st10" d="M191.3,224.9l-2.3-1.4c-0.4-0.3-0.4-0.7,0.1-1l2.1-1.2c0.5-0.3,1.1-0.3,1.6-0.1l2.3,1.3      c0.4,0.2,0.4,0.7-0.1,1l-2.1,1.2C192.4,225.1,191.8,225.2,191.3,224.9z"></path>
				<path class="st10" d="M195.9,227.6l-2.3-1.3c-0.4-0.3-0.4-0.7,0.1-1l2.1-1.2c0.5-0.3,1.1-0.3,1.6-0.1l2.3,1.3      c0.4,0.2,0.4,0.7-0.1,1l-2.1,1.2C197.1,227.8,196.5,227.9,195.9,227.6z"></path>
				<path class="st10" d="M200.6,230.3l-2.3-1.3c-0.4-0.3-0.4-0.7,0.1-1l2.1-1.2c0.5-0.3,1.1-0.3,1.6-0.1l2.3,1.3      c0.4,0.3,0.4,0.7-0.1,1l-2.1,1.2C201.8,230.5,201.2,230.6,200.6,230.3z"></path>
				<path class="st10" d="M139.7,200.5l-2.3-1.3c-0.4-0.3-0.4-0.7,0.1-1l2.1-1.2c0.5-0.3,1.1-0.3,1.6-0.1l2.3,1.3      c0.4,0.3,0.4,0.7-0.1,1l-2.1,1.2C140.9,200.8,140.3,200.8,139.7,200.5z"></path>
				<path class="st10" d="M144.4,203.2l-2.3-1.3c-0.4-0.2-0.4-0.7,0.1-1l2.1-1.2c0.5-0.3,1.1-0.3,1.6-0.1l2.3,1.3      c0.4,0.3,0.4,0.7-0.1,1l-2.1,1.2C145.5,203.4,145,203.4,144.4,203.2z"></path>
				<path class="st10" d="M149.1,205.9l-2.3-1.4c-0.4-0.3-0.4-0.7,0.1-1l2.1-1.2c0.5-0.3,1.1-0.3,1.6-0.1l2.3,1.3      c0.4,0.3,0.4,0.7-0.1,1l-2.1,1.2C150.2,206.2,149.6,206.2,149.1,205.9z"></path>
				<path class="st10" d="M153.8,208.6l-2.3-1.3c-0.4-0.2-0.4-0.7,0.1-1l2.1-1.2c0.5-0.3,1.1-0.3,1.6-0.1l2.3,1.3      c0.4,0.3,0.4,0.7-0.1,1l-2.1,1.2C154.9,208.8,154.3,208.9,153.8,208.6z"></path>
				<path class="st10" d="M158.5,211.3l-2.3-1.3c-0.4-0.2-0.4-0.7,0.1-0.9l2.1-1.2c0.5-0.3,1.1-0.3,1.6-0.1l2.3,1.4      c0.4,0.2,0.4,0.7-0.1,0.9l-2.1,1.2C159.6,211.6,159,211.6,158.5,211.3z"></path>
				<path class="st10" d="M163.2,214l-2.3-1.3c-0.4-0.2-0.4-0.7,0.1-1l2.1-1.2c0.5-0.3,1.1-0.3,1.6-0.1l2.3,1.4      c0.4,0.2,0.4,0.7-0.1,0.9l-2.1,1.2C164.3,214.3,163.7,214.3,163.2,214z"></path>
				<path class="st10" d="M167.9,216.8l-2.3-1.4c-0.4-0.2-0.4-0.7,0.1-0.9l2.1-1.2c0.5-0.3,1.1-0.3,1.6-0.1l2.3,1.4      c0.4,0.2,0.4,0.7-0.1,0.9l-2.1,1.2C169,217,168.4,217,167.9,216.8z"></path>
				<path class="st10" d="M172.6,219.5l-2.3-1.4c-0.4-0.2-0.4-0.7,0.1-0.9l2.1-1.2c0.5-0.3,1.1-0.3,1.6-0.1l2.3,1.3      c0.4,0.2,0.4,0.7-0.1,0.9l-2.1,1.2C173.7,219.7,173.1,219.7,172.6,219.5z"></path>
				<path class="st10" d="M177.3,222.2l-2.3-1.4c-0.4-0.2-0.4-0.7,0.1-0.9l2.1-1.2c0.5-0.3,1.1-0.3,1.6-0.1l2.3,1.4      c0.4,0.2,0.4,0.7-0.1,0.9l-2.1,1.2C178.4,222.4,177.8,222.4,177.3,222.2z"></path>
				<path class="st10" d="M182,224.9l-2.3-1.3c-0.4-0.2-0.4-0.7,0.1-0.9l2.1-1.2c0.5-0.3,1.1-0.3,1.6-0.1l2.3,1.3      c0.4,0.2,0.4,0.7-0.1,1l-2.1,1.2C183.1,225.1,182.5,225.1,182,224.9z"></path>
				<path class="st10" d="M186.6,227.6l-2.3-1.3c-0.4-0.3-0.4-0.7,0.1-1l2.1-1.2c0.5-0.3,1.1-0.3,1.6-0.1l2.3,1.3      c0.4,0.2,0.4,0.7-0.1,1l-2.1,1.3C187.8,227.8,187.2,227.8,186.6,227.6z"></path>
				<path class="st10" d="M191.3,230.3l-2.3-1.4c-0.4-0.2-0.4-0.7,0.1-0.9l2.1-1.2c0.5-0.3,1.1-0.3,1.6-0.1l2.3,1.3      c0.4,0.2,0.4,0.7-0.1,1l-2.1,1.2C192.5,230.5,191.9,230.5,191.3,230.3z"></path>
				<path class="st10" d="M196,233l-2.3-1.3c-0.4-0.3-0.4-0.7,0.1-1l2.1-1.2c0.5-0.3,1.1-0.3,1.6-0.1l2.3,1.3c0.4,0.3,0.4,0.7-0.1,1      l-2.1,1.2C197.2,233.2,196.6,233.2,196,233z"></path>
				<path class="st10" d="M135.1,203.2l-2.3-1.3c-0.4-0.2-0.4-0.7,0.1-0.9l2.1-1.2c0.5-0.3,1.1-0.3,1.6-0.1l2.3,1.4      c0.4,0.2,0.4,0.7-0.1,0.9l-2.1,1.2C136.2,203.4,135.6,203.4,135.1,203.2z"></path>
				<path class="st10" d="M139.8,205.9l-2.3-1.3c-0.4-0.2-0.4-0.7,0.1-0.9l2.1-1.2c0.5-0.3,1.1-0.3,1.6-0.1l2.3,1.3      c0.4,0.2,0.4,0.7-0.1,0.9l-2.1,1.2C140.9,206.1,140.3,206.1,139.8,205.9z"></path>
				<path class="st10" d="M144.5,208.6l-2.3-1.4c-0.4-0.2-0.4-0.7,0.1-0.9l2.1-1.2c0.5-0.3,1.1-0.3,1.6-0.1l2.3,1.4      c0.4,0.2,0.4,0.7-0.1,0.9l-2.1,1.2C145.6,208.8,145,208.8,144.5,208.6z"></path>
				<path class="st10" d="M149.2,211.3l-2.3-1.4c-0.4-0.2-0.4-0.7,0.1-0.9l2.1-1.2c0.5-0.3,1.1-0.3,1.6-0.1l2.3,1.3      c0.4,0.2,0.4,0.7-0.1,0.9l-2.1,1.2C150.3,211.5,149.7,211.6,149.2,211.3z"></path>
				<path class="st10" d="M153.9,214l-2.3-1.4c-0.4-0.2-0.4-0.7,0.1-0.9l2.1-1.2c0.5-0.3,1.1-0.3,1.6-0.1l2.3,1.3      c0.4,0.2,0.4,0.7-0.1,1l-2.1,1.2C155,214.2,154.4,214.3,153.9,214z"></path>
				<path class="st10" d="M158.5,216.7l-2.3-1.4c-0.4-0.2-0.4-0.7,0.1-0.9l2.1-1.2c0.5-0.3,1.1-0.3,1.6-0.1l2.3,1.3      c0.4,0.2,0.4,0.7-0.1,1l-2.1,1.2C159.7,217,159,217,158.5,216.7z"></path>
				<path class="st10" d="M163.2,219.4l-2.3-1.3c-0.4-0.3-0.4-0.7,0.1-1l2.1-1.2c0.5-0.3,1.1-0.3,1.6-0.1l2.3,1.3      c0.4,0.2,0.4,0.7-0.1,1l-2.1,1.2C164.4,219.7,163.8,219.7,163.2,219.4z"></path>
				<path class="st10" d="M167.9,222.1l-2.3-1.3c-0.4-0.2-0.4-0.7,0.1-1l2.1-1.2c0.5-0.3,1.1-0.3,1.6-0.1l2.3,1.3      c0.4,0.3,0.4,0.7-0.1,1l-2.1,1.2C169.1,222.4,168.5,222.4,167.9,222.1z"></path>
				<path class="st10" d="M172.6,224.9l-2.3-1.3c-0.4-0.3-0.4-0.7,0.1-1l2.1-1.2c0.5-0.3,1.1-0.3,1.6-0.1l2.3,1.3      c0.4,0.3,0.4,0.7-0.1,1l-2.1,1.2C173.7,225.1,173.1,225.1,172.6,224.9z"></path>
				<path class="st10" d="M182,230.3l-2.3-1.3c-0.4-0.2-0.4-0.7,0.1-1l2.1-1.2c0.5-0.3,1.1-0.3,1.6-0.1l2.3,1.4      c0.4,0.2,0.4,0.7-0.1,0.9l-2.1,1.2C183.2,230.5,182.6,230.5,182,230.3z"></path>
				<path class="st10" d="M186.7,233l-2.3-1.3c-0.4-0.2-0.4-0.7,0.1-1l2.1-1.2c0.5-0.3,1.1-0.3,1.6-0.1l2.3,1.3      c0.4,0.3,0.4,0.7-0.1,1l-2.1,1.2C187.8,233.2,187.2,233.2,186.7,233z"></path>
				<path class="st10" d="M191.4,235.7l-2.3-1.3c-0.4-0.2-0.4-0.7,0.1-0.9l2.1-1.2c0.5-0.3,1.1-0.3,1.6-0.1l2.3,1.4      c0.4,0.2,0.4,0.7-0.1,0.9l-2.1,1.2C192.5,235.9,191.9,235.9,191.4,235.7z"></path>
				<path class="st10" d="M130.5,205.9l-2.3-1.3c-0.4-0.2-0.4-0.7,0.1-1l2.1-1.2c0.5-0.3,1.1-0.3,1.6-0.1l2.3,1.4      c0.4,0.2,0.4,0.7-0.1,0.9l-2.1,1.2C131.6,206.1,131,206.1,130.5,205.9z"></path>
				<path class="st10" d="M135.2,208.6l-2.3-1.4c-0.4-0.2-0.4-0.7,0.1-0.9l2.1-1.2c0.5-0.3,1.1-0.3,1.6-0.1l2.4,1.4      c0.4,0.2,0.4,0.7-0.1,0.9l-2.1,1.2C136.3,208.8,135.7,208.8,135.2,208.6z"></path>
				<path class="st10" d="M153.9,219.4l-16.4-9.5c-0.4-0.2-0.4-0.7,0.1-0.9l2.1-1.2c0.5-0.3,1.1-0.3,1.6-0.1l16.4,9.5      c0.4,0.2,0.4,0.7-0.1,1l-2.1,1.2C155,219.6,154.4,219.6,153.9,219.4z"></path>
				<path class="st10" d="M158.6,222.1l-2.3-1.3c-0.4-0.3-0.4-0.7,0.1-1l2.1-1.2c0.5-0.3,1.1-0.3,1.6-0.1l2.3,1.3      c0.4,0.2,0.4,0.7-0.1,1l-2.1,1.2C159.7,222.3,159.1,222.3,158.6,222.1z"></path>
				<path class="st10" d="M163.3,224.8l-2.3-1.3c-0.4-0.3-0.4-0.7,0.1-1l2.1-1.2c0.5-0.3,1.1-0.3,1.6-0.1l2.3,1.3      c0.4,0.3,0.4,0.7-0.1,1l-2.1,1.2C164.4,225,163.8,225,163.3,224.8z"></path>
				<path class="st10" d="M181.2,230.7l-3.9-2.3l3.9-2.2c0.4-0.2,0.4-0.6,0-0.9l-2.3-1.3c-0.5-0.2-1-0.2-1.5,0l-3.9,2.2l-3.9-2.3      c-0.5-0.2-1-0.2-1.5,0l-2.3,1.3c-0.4,0.2-0.4,0.6,0,0.9l4.7,2.7l2.3,1.3l4.7,2.7c0.5,0.2,1,0.2,1.5,0l2.3-1.3      c0.2-0.1,0.4-0.4,0.3-0.6C181.4,230.9,181.3,230.8,181.2,230.7z"></path>
				<path class="st10" d="M182,235.6l-2.3-1.3c-0.4-0.2-0.4-0.7,0.1-1l2.1-1.2c0.5-0.3,1.1-0.3,1.6-0.1l2.3,1.3      c0.4,0.3,0.4,0.7-0.1,1l-2.1,1.2C183.2,235.9,182.6,235.9,182,235.6z"></path>
				<path class="st10" d="M186.8,238.4l-2.3-1.3c-0.4-0.2-0.4-0.7,0.1-1l2.1-1.2c0.5-0.3,1.1-0.3,1.6-0.1l2.3,1.4      c0.4,0.2,0.4,0.7-0.1,0.9l-2.1,1.2C187.9,238.6,187.3,238.6,186.8,238.4z"></path>
			</g>
			<g>
				<path class="st13" d="M211.8,227.6l-64.7-37.3c-1.5-1-2.3-2.7-2.4-4.5l-0.1-44.1c0-1.7,1.1-2.6,2.4-1.8l64.7,37.3      c1.5,1,2.3,2.7,2.4,4.5l0.1,44.1C214.2,227.5,213.1,228.3,211.8,227.6z"></path>
				<path class="st15" d="M210,222.3l-61-35.1c-0.8-0.6-1.3-1.5-1.3-2.5v-39.3c0-1,0.6-1.4,1.3-1l61,35.1c0.8,0.6,1.3,1.5,1.3,2.5      v39.3C211.3,222.3,210.7,222.7,210,222.3z"></path>
				<path class="st16" d="M180.1,160.7c0,0.5-0.3,0.6-0.7,0.4c-0.4-0.3-0.7-0.7-0.7-1.2c0-0.5,0.3-0.6,0.7-0.4      C179.8,159.7,180.1,160.2,180.1,160.7z"></path>
			</g>
		</g>
		<g>
			<path class="st17" d="M134.8,245.7c0,0,7.2,2.1,9.9,1.7s10.5-4.2,10.3-5.5c-0.2-1.3-2.3-2.4-4.6-2s-5.6,2.1-6.4,2.1     c-2.2,0-5.6-3.2-9.6-1.9C130.4,241.3,134.8,245.7,134.8,245.7z"></path>
			<path d="M128.8,384.8c-0.1-0.1-0.2-0.2-0.4-0.2c-3.1-1.8-7.6-1.3-10.7,0.5l-11.3,6.5H104v3.1l0,0c-0.1,1.2,0.7,2.5,2.3,3.4     c3.6,1.8,7.8,1.8,11.3,0l10.7-7c1.2-0.6,2.1-1.7,2.3-3l0,0l-0.4-3.1L128.8,384.8z"></path>
			<path class="st7" d="M128.4,388l-10.7,7c-3.6,1.8-7.8,1.8-11.3,0l0,0c-2.3-1.3-3-4.3-1.7-6.6c0.4-0.7,1-1.3,1.7-1.7     c0,0,8-4.5,11.9-5.7c5.2-1.6,8.2-0.6,10.2,0.6c1.7,1,2.3,3.2,1.3,4.9C129.5,387.2,129,387.7,128.4,388z"></path>
			<g>
				<path d="M94.8,375.8c-0.1-0.1-0.2-0.2-0.3-0.2c-3.1-1.8-7.6-1.3-10.8,0.5l-11.3,6.5H70v3.1l0,0c-0.1,1.2,0.7,2.5,2.3,3.4      c3.5,1.8,7.8,1.8,11.3,0l10.8-7c1.2-0.6,2.1-1.7,2.3-3l0,0l-0.4-3.1L94.8,375.8z"></path>
				<path class="st7" d="M94.4,379l-10.8,7c-3.6,1.8-7.7,1.8-11.3,0l0,0c-2.3-1.3-3-4.3-1.7-6.6c0.4-0.7,1-1.3,1.7-1.7      c0,0,8-4.5,11.9-5.7c5.2-1.6,8.2-0.6,10.2,0.6c1.7,1,2.3,3.2,1.3,4.9C95.5,378.2,95,378.7,94.4,379z"></path>
			</g>
			<path class="st18" d="M70,381.6c0,2.1,3.7,3.3,5.8,3.8c3.7,0.7,10.4-0.7,11.3-4.4c1-3.3,2-7.9,2.5-9.6c2.2-9.6,5.4-33.2,7.6-53.9     c0.1-1,0.2-2,0.3-3c0.3,0.7,0.5,1.4,0.7,2.1c6.4,20.5,6.3,64.4,6.7,69.9c0,0.3,0,0.6,0,0.8c0,0.3,0,0.5,0.1,0.8     c1,3.6,8,3.5,9.5,3.3c1.5-0.1,2.9-0.4,4.2-1.1c1-0.5,1.7-1.3,2.2-2.4c3.1-27.7,4.4-55.6,4-83.5c-0.1-9.9-0.7-19.7-1.8-29.5     c-0.1-0.7-0.2-1.1-0.2-1.1c-7.6,0.7-14.2,1.6-19.2,3.2c-0.4-2.9-1.7,0.5-1.7,0.5l-28.6-3.1l-0.6-0.1v0.1c-0.1,0.5-0.1,1-0.1,1.5     c-0.1,1.1-0.1,2.8-0.2,4.9c-0.1,3.7-0.1,9,0,15.7C72.7,307.3,78.3,333.6,70,381.6z"></path>
			
				<linearGradient id="SVGID_1_" gradientUnits="userSpaceOnUse" x1="1187.9375" y1="275.2825" x2="1187.9475" y2="275.2925" gradientTransform="matrix(1 0 0 -1 -997.68 461.57)">
				<stop offset="0" style="stop-color:#5A6DDB"></stop>
				<stop offset="1" style="stop-color:#7B8AE9"></stop>
			</linearGradient>
			<path class="st19" d="M190.1,186.1c0.1,0.1,0.2,0.3,0.3,0.4C190.3,186.3,190.2,186.2,190.1,186.1z"></path>
			<path class="st20" d="M114.1,299.9c1.6-0.6,3.2-1.3,4.7-2.2c5.7-3.3,9.5-7.6,9.2-11.9c0,0-0.5-11.3-1.1-24.8h-0.1     C110.7,259.8,112.3,286.8,114.1,299.9z"></path>
			<path class="st20" d="M81.5,192.3c2.2,6.8,7.8,9.3,12.9,10.8c5.5,1.5,11.3,1.9,17,1c0.2,0,0.4-0.1,0.6-0.1l-2,2.6l-1.2,3.9v14     l16.1,20.1c0,0,0.6,0.4,1.4,1.2c-0.2-5.8-0.4-11.5-0.5-16.2c0-10.1-2.2-24.1-4.1-28.4c-0.3-0.7-0.8-1.4-1.4-2     c-0.7-0.7-1.3-1.3-1.9-1.8c-7.6-7.3-8.8-6.2-8.8-6.2L92.8,185l-0.8-0.3c-0.4,0-0.7,0-1.1,0.1l0,0c-0.4,0.1-0.9,0.2-1.5,0.3     c-0.6,0.1-1.3,0.3-2.1,0.5v-1.2c-0.5-0.1-1.1-0.2-1.6-0.2c0.2,0,0.5,0.1,0.7,0.2C82.9,186.1,80.5,189,81.5,192.3z"></path>
			<path class="st21" d="M66.3,207.4c0.2-2.8,0.6-5.5,1.3-8.2C66.9,201.8,66.4,204.6,66.3,207.4z"></path>
			<path class="st22" d="M96.1,203.5c8.2,1.5,16.6-0.4,23.5-5.1c-0.4-0.4-0.8-0.8-1.1-1.1c-6.4,4.5-14.4,6.3-22.1,4.9     c-13.4-2.1-14.7-7.8-14.3-11.7c0.3-3.4,4.5-5.7,5.3-6.1l-1.5-0.2c0,0-4.7,2.7-5.1,6.8S81.8,201.1,96.1,203.5z"></path>
			<path class="st23" d="M112.2,141.4c-10.3,1.9-15.5-0.9-19.5,4.3c-3.5,4.6,2.3,17.5-2.1,23.8c-3.1,4.6-13.9-0.3-16.6-9.3     c-2.3-11.4-0.2-22.7,3.5-27.4c8.4-10.7,22.8-12.4,33.8-9.5c5.4,1.5,9.2,3.7,11.8,6.1C124.4,134,122.6,139.6,112.2,141.4z"></path>
			<path class="st23" d="M112.7,142.5c-10.2,2-15.4-1-19.3,4.6c-3.5,4.9,2.2,18.4-2.1,25.2c-3.1,4.9-13.8-0.3-16.5-9.9     c-2.3-12-0.2-23.9,3.5-29c8.3-11.3,22.6-13.1,33.5-10c5.3,1.6,9.1,3.9,11.7,6.4C124.8,134.6,123,140.6,112.7,142.5z"></path>
			<path class="st17" d="M119.2,174c-0.3,0.7-0.7,1.3-1.1,1.9c-4.9,6.3-14.3,6.6-20.1,5.1c-2.4-0.7-2.8-7.3-2.5-14.9     c0.5-10.8,2.5-23.5,2.5-23.5l24,1.6C122,144.2,122.8,165.6,119.2,174z"></path>
			<path class="st10" d="M87.7,185.2c-2,1.7-2.4,4.7-0.9,6.9c2.6,4,8.8,5.9,14.5,5c5.8-0.9,12.2-3.6,12.9-3.6s-4.4-4-4.4-4     L87.7,185.2z"></path>
			<path class="st17" d="M100.9,169.1L100.9,169.1l-5.4-3c-0.2,3.5-0.1,7,0.3,10.5l0,0l-8.4-2.7v14.3c0.1,2.2,1.4,4.1,3.3,5.1     c5,2.3,10.8,2.3,15.8,0c3.8-1.9,3.3-4.5,3.3-4.5v-7.8l0,0c1.2-0.3,2.3-0.7,3.4-1.3c1.9-0.9,3.6-2.2,4.9-3.9     c0.4-0.6,0.8-1.3,1.1-1.9C108.7,179.8,100.9,169.1,100.9,169.1z"></path>
			<path class="st24" d="M126.8,136.9c-0.2,4.3-6.5,8.6-9.8,11.9c-4.7,4.7,0.6,12.5-2.7,13c-3.3,0.5-2.8-10.1-8.8-6     c-3.3,2.2-5.4,16.7-5.4,20.3s-11.3,8-16.3,3c-5.1-5.1-8.5-11.6-9.8-18.7c2.7,9.1,13.5,14,16.6,9.3c4.4-6.4-1.4-19.2,2.1-23.8     c4-5.3,9.2-2.5,19.5-4.3s12.2-7.5,10.8-12h0C125.6,132,126.8,134.7,126.8,136.9z"></path>
			<path class="st20" d="M111.1,231.8c3.5,5.8,16.3,28,24.1,28c7.8,0,9-7.9,7.5-13.7c-0.1-0.5-0.3-0.9-0.4-1.3     c-2-5.8-13.2-41.8-21.2-43.8c-3.8-1-7.4,0.8-10,3.9c-1.3,1.6-2.4,3.3-3.1,5.2C105.6,215.8,107.6,226,111.1,231.8z"></path>
			<path class="st25" d="M111,330.7v60.6c3.2,0.4,8.6,0,9.8-3.5c0-0.3,0.5-5.8,0.7-7.4c2.6-25.3,3.6-50.7,3.2-76.1     C122.5,304.8,111,308.1,111,330.7z"></path>
			<path class="st25" d="M83,384.6c2-0.7,3.7-1.9,4.1-3.7c0,0,0.7-2.3,1.7-6.4l0.2-0.8c0.2-0.8,0.3-1.5,0.6-2.3     c2.2-9.6,5.4-33.2,7.6-53.9c-3.5,3.3-7.1,9.4-8.4,20.4C86.9,353,84.6,372,83,384.6z"></path>
			<path class="st22" d="M111.1,231.8c3.5,5.8,16.3,28,24.1,28c7.8,0,9-7.9,7.5-13.7l0,0c-6.9,7.5-16.5-3.5-26-17.1     s-5.6-24.2-5.6-24.2h-0.1c-1.3,1.6-2.4,3.3-3.1,5.2C105.6,215.8,107.6,226,111.1,231.8z"></path>
			<path class="st22" d="M67,241.3c0.1,1.9,3.5,5.8,4.2,5.6c0,0.5-1,34.5-1.1,36.3c-0.4,4.6,4.1,11,10.2,14.5     c2.7,1.5,5.6,2.6,8.6,3.3l1.4-14.9l1.5,15.5c8.7,1.3,16.2,0.5,22.3-1.8c-1.8-13.1-3.4-40.1,12.7-38.9h0.1     c-0.2-4.9-0.4-10.2-0.5-15.2c-0.9-0.7-1.4-1.2-1.4-1.2l-16.2-20.1v-14l1.2-3.9l2-2.6c-0.2,0.1-0.4,0.1-0.6,0.1     c-5.7,0.9-11.5,0.5-17-1c-5.1-1.5-10.7-4.1-12.9-10.8c-1.1-3.4,1.4-6.3,5-7.9c-0.3-0.1-0.5-0.2-0.7-0.2c-2.7-0.2-5.4,0.4-7.8,1.7     c-0.6,0.3-1.1,0.7-1.7,1c-7.9,5.4-10.1,13.7-10.1,24C66.2,210.9,65.8,225.6,67,241.3z"></path>
			<path class="st26" d="M68,198c1.4-4.5,4.4-8.4,8.4-11c0.5-0.4,1.1-0.7,1.7-1c2.3-1.4,5.1-2,7.8-1.7C76.3,181.8,70.6,189,68,198z"></path>
		</g>
	</g>
</g>
<g id="_11-2">
	<path class="st12" d="M306.5,230.5l0-44.6c0-1.8,0.9-3.5,2.4-4.6l65.5-37.7c0.4-0.3,1-0.3,1.5-0.2l0,0l0.1,0.1   c0.1,0,0.1,0.1,0.1,0.1l3,1.9l-2.4,3l0,41.4c0,1.8-0.9,3.5-2.4,4.6l-60.6,34.9l-3.6,4.7l-2.8-1.8l0,0   C306.7,231.9,306.4,231.2,306.5,230.5z"></path>
	<path class="st12" d="M310.7,238.6L310.7,238.6v-3.5l7.6-1.3l58.6-33.8c1.7-0.7,3.6-0.7,5.1,0.2l33.6,19.3h0.4l6,0.5l-0.1,4.1l0,0   c0,0.6-0.4,1.1-0.9,1.3l-65.4,37.8c-1.7,0.8-3.6,0.7-5.1-0.2l-38.6-22.3C310.8,240.1,310.4,239.3,310.7,238.6z"></path>
	<g>
		<path class="st13" d="M355.8,259.4l65.4-37.8c1.3-0.8,1.2-2.1-0.4-3l-38.6-22.3c-1.6-0.9-3.5-1-5.1-0.2l-65.4,37.8    c-1.3,0.8-1.2,2.1,0.4,3l38.6,22.3C352.2,260,354.1,260.1,355.8,259.4z"></path>
		<path class="st14" d="M338.1,247l61.7-35.6c0.7-0.4,0.6-1.1-0.2-1.6l-18.2-10.5c-0.9-0.5-1.9-0.5-2.8-0.1l-61.7,35.6    c-0.7,0.4-0.6,1.1,0.2,1.6l18.3,10.5C336.1,247.4,337.2,247.4,338.1,247z"></path>
		<path class="st14" d="M375.7,242.9l17-9.8c0.7-0.4,0.6-1.1-0.2-1.6l-9.9-5.7c-0.9-0.5-1.9-0.5-2.8-0.1l-17,9.8    c-0.7,0.4-0.6,1.1,0.2,1.6l9.9,5.7C373.8,243.3,374.8,243.3,375.7,242.9z"></path>
		<path class="st10" d="M375.7,242.9l17-9.8c0.7-0.4,0.6-1.1-0.2-1.6l-1.2-0.7c-0.9-0.5-1.9-0.5-2.8-0.1l-17,9.8    c-0.7,0.4-0.6,1.1,0.2,1.6l1.2,0.7C373.8,243.3,374.8,243.3,375.7,242.9z"></path>
		<path class="st10" d="M380,204.1l2.4-1.4c0.4-0.2,0.4-0.7-0.1-1l-2.1-1.2c-0.5-0.3-1.1-0.3-1.7-0.1l-2.4,1.4    c-0.4,0.3-0.4,0.7,0.1,1l2.1,1.2C378.9,204.3,379.5,204.4,380,204.1z"></path>
		<path class="st10" d="M375.3,206.9l2.4-1.4c0.4-0.3,0.4-0.7-0.1-1l-2.1-1.2c-0.5-0.3-1.1-0.3-1.6-0.1l-2.4,1.4    c-0.4,0.3-0.4,0.7,0.1,1l2.1,1.2C374.2,207.1,374.8,207.1,375.3,206.9z"></path>
		<path class="st10" d="M370.6,209.6l2.4-1.4c0.4-0.3,0.4-0.7-0.1-1l-2.1-1.2c-0.5-0.3-1.1-0.3-1.7-0.1l-2.4,1.4    c-0.4,0.3-0.4,0.7,0.1,1l2.1,1.3C369.5,209.8,370.1,209.8,370.6,209.6z"></path>
		<path class="st10" d="M365.8,212.3l2.4-1.4c0.4-0.3,0.4-0.7-0.1-1l-2-1.2c-0.5-0.3-1.1-0.3-1.7-0.1l-2.4,1.4    c-0.4,0.3-0.4,0.7,0.1,1l2.1,1.2C364.7,212.6,365.3,212.6,365.8,212.3z"></path>
		<path class="st10" d="M361.1,215.1l2.4-1.4c0.4-0.2,0.4-0.7-0.1-1l-2.1-1.1c-0.5-0.3-1.1-0.3-1.7-0.1l-2.4,1.4    c-0.4,0.2-0.4,0.7,0.1,1l2.1,1.2C359.9,215.3,360.6,215.3,361.1,215.1z"></path>
		<path class="st10" d="M356.4,217.8l2.4-1.4c0.4-0.2,0.4-0.7-0.1-1l-2.1-1.2c-0.5-0.3-1.1-0.3-1.7-0.1l-2.4,1.4    c-0.4,0.2-0.4,0.7,0.1,1l2.1,1.2C355.2,218,355.8,218,356.4,217.8z"></path>
		<path class="st10" d="M351.6,220.6l2.4-1.4c0.4-0.2,0.4-0.7-0.1-1l-2.1-1.2c-0.5-0.3-1.1-0.3-1.7-0.1l-2.4,1.4    c-0.4,0.3-0.4,0.7,0.1,1l2.1,1.2C350.5,220.8,351.1,220.8,351.6,220.6z"></path>
		<path class="st10" d="M346.9,223.3l2.4-1.4c0.4-0.3,0.4-0.7-0.1-1l-2.1-1.2c-0.5-0.3-1.1-0.3-1.7-0.1l-2.3,1.4    c-0.4,0.3-0.4,0.7,0.1,1l2.1,1.2C345.8,223.5,346.3,223.5,346.9,223.3z"></path>
		<path class="st10" d="M342.1,226l2.4-1.4c0.4-0.3,0.4-0.7-0.1-1l-2.1-1.2c-0.5-0.3-1.1-0.3-1.7-0.1l-2.4,1.4    c-0.4,0.3-0.4,0.7,0.1,1l2.1,1.2C341,226.2,341.6,226.3,342.1,226z"></path>
		<path class="st10" d="M337.4,228.8l2.4-1.4c0.4-0.3,0.4-0.7-0.1-1l-2.1-1.2c-0.5-0.3-1.1-0.3-1.7-0.1l-2.3,1.4    c-0.4,0.2-0.4,0.7,0.1,1l2.1,1.2C336.2,229,336.9,229,337.4,228.8z"></path>
		<path class="st10" d="M332.6,231.5l2.4-1.4c0.4-0.2,0.4-0.7-0.1-1l-2.1-1.2c-0.5-0.3-1.1-0.3-1.7-0.1l-2.4,1.4    c-0.4,0.2-0.4,0.7,0.1,1l2.1,1.2C331.5,231.8,332.1,231.8,332.6,231.5z"></path>
		<path class="st10" d="M327.9,234.2l2.4-1.4c0.4-0.2,0.4-0.7-0.1-1l-2.1-1.2c-0.5-0.3-1.1-0.3-1.7-0.1L324,232    c-0.4,0.2-0.4,0.7,0.1,1l2.1,1.2C326.8,234.5,327.4,234.5,327.9,234.2z"></path>
		<path class="st10" d="M323.1,237l2.4-1.4c0.4-0.2,0.4-0.7-0.1-1l-2.1-1.2c-0.5-0.3-1.1-0.3-1.7-0.1l-2.4,1.4    c-0.4,0.3-0.4,0.7,0.1,1l2.1,1.2C322,237.2,322.6,237.2,323.1,237z"></path>
		<path class="st10" d="M384.8,206.8l2.4-1.4c0.4-0.2,0.4-0.7-0.1-0.9l-2.1-1.2c-0.5-0.3-1.1-0.3-1.6-0.1l-2.4,1.3    c-0.4,0.3-0.4,0.7,0.1,1l2.1,1.2C383.6,207.1,384.2,207.1,384.8,206.8z"></path>
		<path class="st10" d="M380,209.6l2.4-1.4c0.4-0.3,0.4-0.7-0.1-1l-2.1-1.2c-0.5-0.3-1.1-0.3-1.6-0.1l-2.4,1.4    c-0.4,0.3-0.4,0.7,0.1,1l2.1,1.2C378.9,209.8,379.5,209.8,380,209.6z"></path>
		<path class="st10" d="M375.3,212.3l2.4-1.4c0.4-0.3,0.4-0.7-0.1-1l-2.1-1.2c-0.5-0.3-1.1-0.3-1.6-0.1l-2.4,1.4    c-0.4,0.3-0.4,0.7,0.1,1l2.1,1.2C374.1,212.5,374.7,212.5,375.3,212.3z"></path>
		<path class="st10" d="M370.5,215l2.4-1.4c0.4-0.3,0.4-0.7-0.1-1l-2.1-1.2c-0.5-0.3-1.1-0.3-1.6-0.1l-2.4,1.4    c-0.4,0.3-0.4,0.7,0.1,1l2.1,1.2C369.4,215.3,370,215.3,370.5,215z"></path>
		<path class="st10" d="M365.8,217.8l2.4-1.4c0.4-0.2,0.4-0.7-0.1-1l-2.1-1.2c-0.5-0.3-1.1-0.3-1.6-0.1l-2.4,1.4    c-0.4,0.2-0.4,0.7,0.1,1l2.1,1.2C364.6,218,365.2,218,365.8,217.8z"></path>
		<path class="st10" d="M361,220.5l2.4-1.4c0.4-0.2,0.4-0.7-0.1-1l-2.1-1.2c-0.5-0.3-1.1-0.3-1.6-0.1l-2.4,1.4    c-0.4,0.2-0.4,0.7,0.1,1l2.1,1.2C359.9,220.7,360.5,220.7,361,220.5z"></path>
		<path class="st10" d="M356.3,223.3l2.4-1.4c0.4-0.2,0.4-0.7-0.1-1l-2.1-1.2c-0.5-0.3-1.1-0.3-1.6-0.1l-2.4,1.4    c-0.4,0.2-0.4,0.7,0.1,1l2.1,1.2C355.1,223.5,355.8,223.5,356.3,223.3z"></path>
		<path class="st10" d="M351.5,226l2.4-1.4c0.4-0.3,0.4-0.7-0.1-1l-2.1-1.2c-0.5-0.3-1.1-0.3-1.6-0.1l-2.4,1.4    c-0.4,0.3-0.4,0.7,0.1,1l2.1,1.2C350.4,226.2,351,226.2,351.5,226z"></path>
		<path class="st10" d="M346.8,228.7l2.4-1.4c0.4-0.3,0.4-0.7-0.1-1l-2.1-1.2c-0.5-0.3-1.1-0.3-1.6-0.1l-2.4,1.4    c-0.4,0.3-0.4,0.7,0.1,1l2.1,1.2C345.7,228.9,346.3,229,346.8,228.7z"></path>
		<path class="st10" d="M342,231.5l2.4-1.4c0.4-0.3,0.4-0.7-0.1-1l-2.1-1.2c-0.5-0.3-1.1-0.3-1.6-0.1l-2.4,1.4    c-0.4,0.3-0.4,0.7,0.1,1l2.1,1.2C340.9,231.7,341.5,231.7,342,231.5z"></path>
		<path class="st10" d="M337.3,234.2l2.4-1.4c0.4-0.2,0.4-0.7-0.1-1l-2.1-1.2c-0.5-0.3-1.1-0.3-1.6-0.1l-2.4,1.4    c-0.4,0.2-0.4,0.7,0.1,1l2.1,1.2C336.2,234.4,336.8,234.4,337.3,234.2z"></path>
		<path class="st10" d="M332.6,236.9l2.4-1.4c0.4-0.2,0.4-0.7-0.1-1l-2.1-1.2c-0.5-0.3-1.1-0.3-1.6-0.1l-2.4,1.4    c-0.4,0.2-0.4,0.7,0.1,1l2.1,1.2C331.4,237.1,332,237.2,332.6,236.9z"></path>
		<path class="st10" d="M327.8,239.7l2.4-1.4c0.4-0.2,0.4-0.7-0.1-1l-2.1-1.2c-0.5-0.3-1.1-0.3-1.6-0.1l-2.4,1.4    c-0.4,0.3-0.4,0.7,0.1,1l2.1,1.2C326.7,239.9,327.3,239.9,327.8,239.7z"></path>
		<path class="st10" d="M389.5,209.6l2.4-1.4c0.4-0.3,0.4-0.7-0.1-1l-2.1-1.2c-0.5-0.3-1.1-0.3-1.6-0.1l-2.4,1.4    c-0.4,0.3-0.4,0.7,0.1,1l2.1,1.2C388.3,209.8,388.9,209.8,389.5,209.6z"></path>
		<path class="st10" d="M384.7,212.3l2.4-1.4c0.4-0.2,0.4-0.7-0.1-1l-2.1-1.2c-0.5-0.3-1.1-0.3-1.6-0.1l-2.4,1.4    c-0.4,0.2-0.4,0.7,0.1,1l2.1,1.2C383.6,212.5,384.2,212.5,384.7,212.3z"></path>
		<path class="st10" d="M380,215l2.4-1.4c0.4-0.2,0.4-0.7-0.1-1l-2.1-1.2c-0.5-0.3-1.1-0.3-1.7-0.1l-2.4,1.4c-0.4,0.2-0.4,0.7,0.1,1    l2.1,1.2C378.8,215.2,379.4,215.2,380,215z"></path>
		<path class="st10" d="M375.2,217.8l2.4-1.4c0.4-0.2,0.4-0.7-0.1-1l-2.1-1.2c-0.5-0.3-1.1-0.3-1.6-0.1l-2.4,1.4    c-0.4,0.2-0.4,0.7,0.1,1l2.1,1.2C374.1,218,374.7,218,375.2,217.8z"></path>
		<path class="st10" d="M370.5,220.5l2.4-1.4c0.4-0.3,0.4-0.7-0.1-1l-2.1-1.2c-0.5-0.3-1.1-0.3-1.6-0.1l-2.4,1.4    c-0.4,0.3-0.4,0.7,0.1,1l2.1,1.2C369.3,220.7,369.9,220.7,370.5,220.5z"></path>
		<path class="st10" d="M365.7,223.2l2.4-1.4c0.4-0.3,0.4-0.7-0.1-1l-2.1-1.2c-0.5-0.3-1.1-0.3-1.7-0.1l-2.4,1.4    c-0.4,0.3-0.4,0.7,0.1,1l2.1,1.2C364.6,223.4,365.2,223.5,365.7,223.2z"></path>
		<path class="st10" d="M361,226l2.3-1.4c0.4-0.3,0.4-0.7-0.1-1l-2.1-1.2c-0.5-0.3-1.1-0.3-1.6-0.1l-2.4,1.4c-0.4,0.3-0.4,0.7,0.1,1    l2.1,1.2C359.9,226.2,360.5,226.2,361,226z"></path>
		<path class="st10" d="M356.2,228.7l2.4-1.4c0.4-0.2,0.4-0.7-0.1-1l-2.1-1.2c-0.5-0.3-1.1-0.3-1.6-0.1l-2.4,1.4    c-0.4,0.2-0.4,0.7,0.1,1l2.1,1.2C355.1,228.9,355.7,229,356.2,228.7z"></path>
		<path class="st10" d="M351.5,231.4l2.4-1.4c0.4-0.2,0.4-0.7-0.1-1l-2.1-1.2c-0.5-0.3-1.1-0.3-1.7-0.1l-2.4,1.4    c-0.4,0.2-0.4,0.7,0.1,1l2.1,1.2C350.4,231.6,351,231.7,351.5,231.4z"></path>
		<path class="st10" d="M342,236.9l2.4-1.4c0.4-0.3,0.4-0.7-0.1-1l-2.1-1.2c-0.5-0.3-1.1-0.3-1.6-0.1l-2.4,1.4    c-0.4,0.3-0.4,0.7,0.1,1l2.1,1.2C340.9,237.1,341.5,237.2,342,236.9z"></path>
		<path class="st10" d="M337.3,239.6l2.4-1.4c0.4-0.3,0.4-0.7-0.1-1l-2.1-1.2c-0.5-0.3-1.1-0.3-1.7-0.1l-2.4,1.4    c-0.4,0.3-0.4,0.7,0.1,1l2.1,1.2C336.1,239.9,336.8,239.9,337.3,239.6z"></path>
		<path class="st10" d="M332.5,242.4l2.4-1.4c0.4-0.3,0.4-0.7-0.1-1l-2.1-1.2c-0.5-0.3-1.1-0.3-1.7-0.1l-2.4,1.4    c-0.4,0.3-0.4,0.7,0.1,1l2.1,1.2C331.4,242.6,332,242.6,332.5,242.4z"></path>
		<path class="st10" d="M394.1,212.2l2.4-1.4c0.4-0.3,0.4-0.7-0.1-1l-2.1-1.2c-0.5-0.3-1.1-0.3-1.7-0.1l-2.4,1.4    c-0.4,0.3-0.4,0.7,0.1,1l2.1,1.2C393,212.5,393.6,212.5,394.1,212.2z"></path>
		<path class="st10" d="M389.4,215l2.4-1.4c0.4-0.2,0.4-0.7-0.1-1l-2.1-1.2c-0.5-0.3-1.1-0.3-1.7-0.1l-2.4,1.4    c-0.4,0.2-0.4,0.7,0.1,1l2.1,1.2C388.2,215.2,388.8,215.2,389.4,215z"></path>
		<path class="st10" d="M370.4,225.9l16.6-9.6c0.4-0.2,0.4-0.7-0.1-1l-2.1-1.2c-0.5-0.3-1.1-0.3-1.6-0.1l-16.6,9.6    c-0.4,0.3-0.4,0.7,0.1,1l2.1,1.2C369.3,226.1,369.9,226.2,370.4,225.9z"></path>
		<path class="st10" d="M365.7,228.7l2.4-1.4c0.4-0.3,0.4-0.7-0.1-1l-2.1-1.2c-0.5-0.3-1.1-0.3-1.7-0.1l-2.4,1.4    c-0.4,0.3-0.4,0.7,0.1,1l2.1,1.2C364.5,228.9,365.1,228.9,365.7,228.7z"></path>
		<path class="st10" d="M360.9,231.4l2.4-1.4c0.4-0.2,0.4-0.7-0.1-1l-2.1-1.2c-0.5-0.3-1.1-0.3-1.7-0.1l-2.4,1.4    c-0.4,0.2-0.4,0.7,0.1,1l2.1,1.2C359.8,231.6,360.4,231.7,360.9,231.4z"></path>
		<path class="st10" d="M342.8,237.4l4-2.3l-3.9-2.3c-0.2-0.1-0.4-0.3-0.3-0.6c0-0.1,0.2-0.3,0.3-0.3l2.4-1.4c0.5-0.2,1-0.2,1.5,0    l3.9,2.3l4-2.3c0.5-0.3,1.1-0.3,1.5,0l2.3,1.4c0.2,0.1,0.4,0.3,0.3,0.6c0,0.1-0.2,0.3-0.3,0.3l-4.8,2.8l-2.4,1.4l-4.8,2.7    c-0.5,0.2-1.1,0.2-1.5,0l-2.3-1.4C342.4,238,342.4,237.6,342.8,237.4z"></path>
		<path class="st10" d="M342,242.4l2.4-1.4c0.4-0.3,0.4-0.7-0.1-1l-2.1-1.2c-0.5-0.3-1.1-0.3-1.6-0.1l-2.4,1.4    c-0.4,0.3-0.4,0.7,0.1,1l2.1,1.2C340.8,242.6,341.4,242.6,342,242.4z"></path>
		<path class="st10" d="M337.2,245.1l2.4-1.4c0.4-0.3,0.4-0.7-0.1-1l-2.1-1.2c-0.5-0.3-1.1-0.3-1.6-0.1l-2.4,1.4    c-0.4,0.3-0.4,0.7,0.1,1l2.1,1.2C336.1,245.3,336.7,245.3,337.2,245.1z"></path>
	</g>
	<g>
		<path class="st13" d="M311.8,234.2l65.5-37.7c1.5-1.1,2.4-2.8,2.4-4.6v-44.6c0-1.8-1.1-2.6-2.4-1.8l-65.5,37.7    c-1.5,1.1-2.4,2.8-2.4,4.6v44.6C309.5,234.1,310.5,234.9,311.8,234.2z"></path>
		<path class="st15" d="M313.7,228.9l61.7-35.5c0.8-0.6,1.3-1.5,1.3-2.5l0-39.8c0-1-0.6-1.4-1.3-1l-61.7,35.5    c-0.8,0.6-1.3,1.5-1.3,2.5v39.8C312.4,228.9,313,229.3,313.7,228.9z"></path>
		<path class="st16" d="M343.9,166.6c0,0.5,0.3,0.6,0.7,0.4c0.4-0.3,0.7-0.7,0.7-1.3c0-0.5-0.3-0.6-0.7-0.4    C344.2,165.6,343.9,166.1,343.9,166.6z"></path>
	</g>
</g>
<path class="st17" d="M372.1,253.8c0,0-7.3,2.1-10,1.7s-10.6-4.3-10.4-5.6s2.4-2.4,4.7-2s5.6,2.1,6.5,2.1c2.3,0,5.7-3.3,9.7-1.9  S372.1,253.8,372.1,253.8z"></path>
<linearGradient id="SVGID_2_" gradientUnits="userSpaceOnUse" x1="1111.9" y1="267.79" x2="1111.91" y2="267.79" gradientTransform="matrix(-1 0 0 -1 1427.99 461.57)">
	<stop offset="0" style="stop-color:#5A6DDB"></stop>
	<stop offset="1" style="stop-color:#7B8AE9"></stop>
</linearGradient>
<path class="st27" d="M316.2,193.6c-0.1,0.1-0.2,0.3-0.3,0.4C316,193.8,316.1,193.6,316.2,193.6z"></path>
<path class="st10" d="M419.8,192.6c2.1,1.7,2.5,4.7,1,6.9c-2.6,4.1-8.9,6-14.7,5s-12.4-3.6-13-3.6s4.5-4,4.5-4L419.8,192.6z"></path>
<g>
	<ellipse transform="matrix(0.9762 -0.217 0.217 0.9762 -82.0472 96.7332)" class="st11" cx="399.5" cy="422" rx="60.8" ry="22.3"></ellipse>
	<path class="st5" d="M421.5,201.2c0.3-0.1,0.5-0.2,0.8-0.2c-0.6,0-1.1,0.1-1.7,0.2v1.2c-0.8-0.2-1.5-0.4-2.2-0.6s-1.1-0.2-1.5-0.3   l0,0c-0.4-0.1-0.7-0.1-1.1-0.1l-0.9,0.3l-17.6,6.4c0,0-1.3-1.1-9.2,6.5c-0.6,0.6-1.2,1.2-2,1.9c-0.6,0.6-1.1,1.3-1.4,2.1   c-2,4.4-4.3,19.1-4.3,29.6c-0.1,4.9-0.3,10.8-0.5,16.9c0.9-0.8,1.5-1.2,1.5-1.2l16.9-21v-14.6l-1.2-4l-2.1-2.7   c0.2,0.1,0.4,0.1,0.6,0.1c5.9,0.9,11.9,0.6,17.7-1c5.4-1.6,11.2-4.2,13.4-11.3C427.8,205.9,425.2,202.9,421.5,201.2z"></path>
	<path class="st21" d="M441.2,216.6c0.7,2.8,1.2,5.7,1.4,8.6C442.4,222.2,442,219.4,441.2,216.6z"></path>
	<path class="st28" d="M427.5,208c-0.4-4.2-5.3-7.1-5.3-7.1l-1.6,0.2c0.9,0.5,5.2,2.9,5.6,6.4c0.3,4-1,9.9-15,12.2   c-8.1,1.4-16.4-0.5-23.1-5.2c-0.4,0.3-0.8,0.7-1.2,1.1c0,0,9.7,7.7,24.5,5.3C426.5,218.7,427.9,212.3,427.5,208z"></path>
	<g>
		<path class="st17" d="M405.9,367c0,13.3,9.4,28.6,7.7,46.3c-0.1,1.2-6.5-0.8-9,1c-2.5,1.8,15.2,7.9,16.7,7.9    c1.9,0-1.4-4.9-0.7-11.7c1.6-15.1,13.8-33.8,5.8-50.4c-3.6-7.4,7.6-18.6,6.5-24.8c-1.6-8.8-22.5-15.4-25.3-15.4    c-4,0-6.9,20.4-1.8,37C407.1,361.1,405.9,363.4,405.9,367z"></path>
		<path class="st29" d="M405.5,367c0,13.3,9.4,28.6,7.7,46.3c-0.1,1.2-6.5-0.8-9,1c-2.5,1.8,8.8,4.2,10.3,4.2    c0.9,0,0.6-29.7,6.7-45.2c9.5-24.2-12.5-53.5-14-53.5c-4,0-6.9,20.4-1.8,37C406.7,361.1,405.5,363.4,405.5,367z"></path>
		<g>
			<path d="M402.1,416.7c-0.9-1.6-1-3.2,0.6-4.1c0.9-0.5,6.1,0,6.9,0.8c0,0-10.3-0.1,1,3c7.7,1.6,9.8,0.1,9.8-1.5     c1.3,2.1,3,6.5,0.8,7.7l-2.2,1c-6.7-0.3-7.9-2.5-11.2-4.3C407.8,419.5,402.5,417.3,402.1,416.7z"></path>
		</g>
	</g>
	<path class="st23" d="M415.1,131.2c10.2,0.1,18,6.9,20,15.7c7.7,35.6-14.6,43.7-17.8,38.9c-4.6-6.6-11.9-27.4-22.6-29.4   C375.6,169.7,379.4,134.8,415.1,131.2z"></path>
	<path class="st17" d="M384.5,159.3l25-1.7c0,0,2.1,13.2,2.6,24.5c0.3,7.9-0.1,14.8-2.6,15.5c-6.1,1.7-15.9,1.3-21-5.3   c-0.5-0.6-0.9-1.3-1.1-2C383.6,181.6,384.5,159.3,384.5,159.3z"></path>
	<path class="st10" d="M397.2,206.4c0,0-5.3,4.2-4.6,4.2s7.4,2.8,13.4,3.8s12.5-1,15.2-5.2c1.6-2.3,1.1-5.4-1-7.2L397.2,206.4z"></path>
	<g>
		<path class="st17" d="M384.3,370.5c0,13.3,9.4,28.6,7.7,46.3c-0.1,1.2-6.5-0.8-9,1c-2.5,1.8,15.2,7.9,16.7,7.9    c1.9,0-1.4-4.9-0.7-11.7c1.6-15.1,13.8-33.8,5.8-50.4c-3.6-7.4,7.6-18.6,6.5-24.8c-1.6-8.8-22.5-15.4-25.3-15.4    c-4,0-6.9,20.4-1.8,37C385.6,364.7,384.3,367,384.3,370.5z"></path>
		<g>
			<path d="M380.6,420.3c-0.9-1.6-1-3.2,0.6-4.1c0.9-0.5,6.1,0,6.9,0.8c0,0-10.3-0.1,1,3c7.7,1.6,9.8,0.1,9.8-1.5     c1.3,2.1,3,6.5,0.8,7.7l-2.2,1c-6.7-0.3-7.9-2.5-11.2-4.3C386.2,423.1,380.9,420.9,380.6,420.3z"></path>
		</g>
	</g>
	<path class="st17" d="M387.4,190.3c0.3,0.7,0.7,1.4,1.1,2c1.4,1.7,3.1,3.1,5.1,4.1c1.2,0.6,2.4,1,3.6,1.3l0,0v8.1   c0,0-0.5,2.7,3.4,4.7c4.7,2.4,11.8,2.4,16.5,0c2-1,3.3-3,3.4-5.3v-14.9l-8.8,2.8l0,0c0.5-3.6,0.6-7.3,0.3-11l-5.6,3.1h-0.1   C406.5,185.2,398.3,196.4,387.4,190.3z"></path>
	<path class="st24" d="M390.2,141.9L390.2,141.9c-1.5,4.7-6.3,12.6,4.5,14.5c10.7,2,16.2-1,20.3,4.5c3.7,4.8-2.3,18.2,2.2,24.9   c3.3,4.8,15.5-5.8,18.3-15.2c-1.4,7.4-5.9,15.1-11.2,20.4c-5.2,5.3-13.8,4.9-17-3.1c-1.4-3.5-2.2-14.3-5.6-16.6   c-6.3-4.2-3.9,1.4-7.3,0.8s0.3-3.1-4.6-8c-3.4-3.4-6.4-4.2-6.6-8.7C383.1,153,384.4,147.2,390.2,141.9z"></path>
	<path class="st28" d="M399,227.9c-0.8-2-1.9-3.8-3.3-5.5c-2.8-3.2-6.4-5.1-10.4-4c-8.2,2.1-19.9,39.6-22,45.7   c-0.2,0.5-0.3,0.9-0.4,1.4c-1.5,6-0.3,14.2,7.9,14.3c8.2,0.1,21.5-23.1,25.2-29.2C399.5,244.5,401.6,234,399,227.9z"></path>
	<path class="st25" d="M381.6,325.3c-0.2,10.7,4.5,21.5,4.8,32.2c0,0-1.6,6.4,0.4,6.4l9.1-3.1v-8.1   C396,329.2,383.9,325.7,381.6,325.3z"></path>
	<path class="st25" d="M418.6,357c-1.7-8.9-4.9-14.1-8.1-17.1c0.6,5.8,2.7,23.6,2,17.7C412.3,357,418.6,357,418.6,357z"></path>
	<path class="st5" d="M399,227.9c-0.8-2-1.9-3.8-3.3-5.5h-0.1c0,0,4.1,11.1-5.8,25.2c-9.9,14.2-19.9,25.6-27.1,17.8l0,0   c-1.5,6-0.3,14.2,7.9,14.3c8.2,0.1,21.5-23.1,25.2-29.2C399.5,244.5,401.6,234,399,227.9z"></path>
	<path class="st28" d="M422.3,201c2.8-0.2,5.6,0.4,8.1,1.8c0.6,0.3,1.2,0.7,1.7,1.1c4.1,2.7,7.2,6.8,8.7,11.5   C438.1,205.9,432.1,198.5,422.3,201z"></path>
	<path class="st15" d="M438.1,301.8c-0.1-2.3-2-4-2-5.2c0-0.8-0.1-1.4-0.1-1.6v-0.1l-0.7,0.1l-29.8,3.2c0,0-1.3-3.6-1.8-0.5   c-5.3-1.7-12.1-2.5-20-3.3c0,0-4.7,0.4-4.7,1.1c-1.2,10.2-1.8,13.2-1.9,23.5c0,23.5,6.5,44.8,8,44.9c21.5-8.6,41.9-5.6,43.6-9.3   C442.8,314,438.2,305.7,438.1,301.8z"></path>
	<path class="st28" d="M384.1,281.1h-1c-6.9,15.5-5.7,27.7-5.7,27.7c-0.4,4.5,4.6,7.2,10.5,10.6c1.6,0.9,3.2,1.7,4.9,2.3   C394.6,308,400.8,279.9,384.1,281.1z"></path>
	<path class="st5" d="M442.7,228.9c0-10.7-2.3-19.4-10.6-25c-0.5-0.4-1.1-0.7-1.7-1.1c-2.4-1.4-5.3-2-8.1-1.8   c-0.2,0-0.5,0.1-0.8,0.2c3.7,1.7,6.3,4.7,5.2,8.2c-2.3,7-8.1,9.7-13.4,11.3c-5.8,1.6-11.8,2-17.7,1c-0.2,0-0.4-0.1-0.6-0.1l2.1,2.7   l1.2,4V243l-16.9,20.9c0,0-0.6,0.4-1.5,1.2c-0.2,5.3,3.3,10.7,3.1,15.9h0.1c16.8-1.2,11.4,27,9.6,40.6c6.4,2.3,14.2,3.2,23.3,1.8   l1.6-16.2l1.5,15.6c3.1-0.7,6.1-1.9,9-3.5c6.3-3.6,11.1-10.4,10.6-15.2c-0.1-1.4,2.5-14.4-6.3-32.9c-1.1-2.3,1.5-1.7,5.3-2.4   c0,0,4.2-0.5,4.2-8.4C443.1,244.1,442.7,228.9,442.7,228.9z"></path>
	<path class="st24" d="M424.9,155.2c-2.9,10.3-1.9,24.7,2.7,37.2c4.7,12.8,13.1,23.6,24.9,26.2c5.8,1.3-22.2-13.1-6.1-52.8   c5.9-14.7-4.8-20.3-10.7-20.3S426.3,150,424.9,155.2z"></path>
</g>
</svg>
